solid OpenSCAD_Model
  facet normal -0.987688 -0.156436 0
    outer loop
      vertex 7.5 7.5 0
      vertex 7.42658 7.96352 6
      vertex 7.42658 7.96352 0
    endloop
  endfacet
  facet normal -0.987688 -0.156436 0
    outer loop
      vertex 7.42658 7.96352 6
      vertex 7.5 7.5 0
      vertex 7.5 7.5 6
    endloop
  endfacet
  facet normal 0.987688 0.156433 0
    outer loop
      vertex 4.57341 7.03647 6
      vertex 4.5 7.5 0
      vertex 4.5 7.5 6
    endloop
  endfacet
  facet normal 0.987688 0.156433 0
    outer loop
      vertex 4.5 7.5 0
      vertex 4.57341 7.03647 6
      vertex 4.57341 7.03647 0
    endloop
  endfacet
  facet normal 0.156435 -0.987688 0
    outer loop
      vertex 5.53647 8.92658 0
      vertex 6 9 6
      vertex 5.53647 8.92658 6
    endloop
  endfacet
  facet normal 0.156435 -0.987688 0
    outer loop
      vertex 6 9 6
      vertex 5.53647 8.92658 0
      vertex 6 9 0
    endloop
  endfacet
  facet normal -0.156434 0.987688 0
    outer loop
      vertex 6.46352 6.07341 0
      vertex 6 6 6
      vertex 6.46352 6.07341 6
    endloop
  endfacet
  facet normal -0.156434 0.987688 0
    outer loop
      vertex 6 6 6
      vertex 6.46352 6.07341 0
      vertex 6 6 0
    endloop
  endfacet
  facet normal -0.707107 -0.707107 0
    outer loop
      vertex 7.21352 8.38168 0
      vertex 6.88168 8.71352 6
      vertex 6.88168 8.71352 0
    endloop
  endfacet
  facet normal -0.707107 -0.707107 0
    outer loop
      vertex 6.88168 8.71352 6
      vertex 7.21352 8.38168 0
      vertex 7.21352 8.38168 6
    endloop
  endfacet
  facet normal -0.891007 -0.45399 0
    outer loop
      vertex 7.42658 7.96352 0
      vertex 7.21352 8.38168 6
      vertex 7.21352 8.38168 0
    endloop
  endfacet
  facet normal -0.891007 -0.45399 0
    outer loop
      vertex 7.21352 8.38168 6
      vertex 7.42658 7.96352 0
      vertex 7.42658 7.96352 6
    endloop
  endfacet
  facet normal 0.707107 -0.707107 0
    outer loop
      vertex 4.78647 8.38168 6
      vertex 5.11832 8.71352 0
      vertex 5.11832 8.71352 6
    endloop
  endfacet
  facet normal 0.707107 -0.707107 0
    outer loop
      vertex 5.11832 8.71352 0
      vertex 4.78647 8.38168 6
      vertex 4.78647 8.38168 0
    endloop
  endfacet
  facet normal 0.891007 -0.45399 0
    outer loop
      vertex 4.57341 7.96352 6
      vertex 4.78647 8.38168 0
      vertex 4.78647 8.38168 6
    endloop
  endfacet
  facet normal 0.891007 -0.45399 0
    outer loop
      vertex 4.78647 8.38168 0
      vertex 4.57341 7.96352 6
      vertex 4.57341 7.96352 0
    endloop
  endfacet
  facet normal 0.45399 -0.891007 0
    outer loop
      vertex 5.11832 8.71352 0
      vertex 5.53647 8.92658 6
      vertex 5.11832 8.71352 6
    endloop
  endfacet
  facet normal 0.45399 -0.891007 0
    outer loop
      vertex 5.53647 8.92658 6
      vertex 5.11832 8.71352 0
      vertex 5.53647 8.92658 0
    endloop
  endfacet
  facet normal -0.45399 0.891007 0
    outer loop
      vertex 6.88168 6.28647 0
      vertex 6.46352 6.07341 6
      vertex 6.88168 6.28647 6
    endloop
  endfacet
  facet normal -0.45399 0.891007 0
    outer loop
      vertex 6.46352 6.07341 6
      vertex 6.88168 6.28647 0
      vertex 6.46352 6.07341 0
    endloop
  endfacet
  facet normal -0.891007 0.45399 0
    outer loop
      vertex 7.21352 6.61832 0
      vertex 7.42658 7.03647 6
      vertex 7.42658 7.03647 0
    endloop
  endfacet
  facet normal -0.891007 0.45399 0
    outer loop
      vertex 7.42658 7.03647 6
      vertex 7.21352 6.61832 0
      vertex 7.21352 6.61832 6
    endloop
  endfacet
  facet normal 0.45399 0.891007 -0
    outer loop
      vertex 5.53647 6.07341 0
      vertex 5.11832 6.28647 6
      vertex 5.53647 6.07341 6
    endloop
  endfacet
  facet normal 0.45399 0.891007 0
    outer loop
      vertex 5.11832 6.28647 6
      vertex 5.53647 6.07341 0
      vertex 5.11832 6.28647 0
    endloop
  endfacet
  facet normal 0.891007 0.45399 0
    outer loop
      vertex 4.78647 6.61832 6
      vertex 4.57341 7.03647 0
      vertex 4.57341 7.03647 6
    endloop
  endfacet
  facet normal 0.891007 0.45399 0
    outer loop
      vertex 4.57341 7.03647 0
      vertex 4.78647 6.61832 6
      vertex 4.78647 6.61832 0
    endloop
  endfacet
  facet normal -0.156436 -0.987688 0
    outer loop
      vertex 6 9 0
      vertex 6.46352 8.92658 6
      vertex 6 9 6
    endloop
  endfacet
  facet normal -0.156436 -0.987688 -0
    outer loop
      vertex 6.46352 8.92658 6
      vertex 6 9 0
      vertex 6.46352 8.92658 0
    endloop
  endfacet
  facet normal -0.45399 -0.891007 0
    outer loop
      vertex 6.46352 8.92658 0
      vertex 6.88168 8.71352 6
      vertex 6.46352 8.92658 6
    endloop
  endfacet
  facet normal -0.45399 -0.891007 -0
    outer loop
      vertex 6.88168 8.71352 6
      vertex 6.46352 8.92658 0
      vertex 6.88168 8.71352 0
    endloop
  endfacet
  facet normal 0.987688 -0.156434 0
    outer loop
      vertex 4.5 7.5 6
      vertex 4.57341 7.96352 0
      vertex 4.57341 7.96352 6
    endloop
  endfacet
  facet normal 0.987688 -0.156434 0
    outer loop
      vertex 4.57341 7.96352 0
      vertex 4.5 7.5 6
      vertex 4.5 7.5 0
    endloop
  endfacet
  facet normal -0.987688 0.156435 0
    outer loop
      vertex 7.42658 7.03647 0
      vertex 7.5 7.5 6
      vertex 7.5 7.5 0
    endloop
  endfacet
  facet normal -0.987688 0.156435 0
    outer loop
      vertex 7.5 7.5 6
      vertex 7.42658 7.03647 0
      vertex 7.42658 7.03647 6
    endloop
  endfacet
  facet normal -0.707107 0.707107 0
    outer loop
      vertex 6.88168 6.28647 0
      vertex 7.21352 6.61832 6
      vertex 7.21352 6.61832 0
    endloop
  endfacet
  facet normal -0.707107 0.707107 0
    outer loop
      vertex 7.21352 6.61832 6
      vertex 6.88168 6.28647 0
      vertex 6.88168 6.28647 6
    endloop
  endfacet
  facet normal 0.156433 0.987688 -0
    outer loop
      vertex 6 6 0
      vertex 5.53647 6.07341 6
      vertex 6 6 6
    endloop
  endfacet
  facet normal 0.156433 0.987688 0
    outer loop
      vertex 5.53647 6.07341 6
      vertex 6 6 0
      vertex 5.53647 6.07341 0
    endloop
  endfacet
  facet normal 0.707107 0.707107 0
    outer loop
      vertex 5.11832 6.28647 6
      vertex 4.78647 6.61832 0
      vertex 4.78647 6.61832 6
    endloop
  endfacet
  facet normal 0.707107 0.707107 0
    outer loop
      vertex 4.78647 6.61832 0
      vertex 5.11832 6.28647 6
      vertex 5.11832 6.28647 0
    endloop
  endfacet
  facet normal -0.987688 -0.15644 0
    outer loop
      vertex 81 7.5 0
      vertex 80.9266 7.96352 6
      vertex 80.9266 7.96352 0
    endloop
  endfacet
  facet normal -0.987688 -0.15644 0
    outer loop
      vertex 80.9266 7.96352 6
      vertex 81 7.5 0
      vertex 81 7.5 6
    endloop
  endfacet
  facet normal -0.453991 -0.891006 0
    outer loop
      vertex 79.9635 8.92658 0
      vertex 80.3817 8.71352 6
      vertex 79.9635 8.92658 6
    endloop
  endfacet
  facet normal -0.453991 -0.891006 -0
    outer loop
      vertex 80.3817 8.71352 6
      vertex 79.9635 8.92658 0
      vertex 80.3817 8.71352 0
    endloop
  endfacet
  facet normal 0.987688 -0.15644 0
    outer loop
      vertex 78 7.5 6
      vertex 78.0734 7.96352 0
      vertex 78.0734 7.96352 6
    endloop
  endfacet
  facet normal 0.987688 -0.15644 0
    outer loop
      vertex 78.0734 7.96352 0
      vertex 78 7.5 6
      vertex 78 7.5 0
    endloop
  endfacet
  facet normal 0.156434 0.987688 -0
    outer loop
      vertex 79.5 6 0
      vertex 79.0365 6.07341 6
      vertex 79.5 6 6
    endloop
  endfacet
  facet normal 0.156434 0.987688 0
    outer loop
      vertex 79.0365 6.07341 6
      vertex 79.5 6 0
      vertex 79.0365 6.07341 0
    endloop
  endfacet
  facet normal -0.707106 -0.707108 0
    outer loop
      vertex 80.3817 8.71352 0
      vertex 80.7135 8.38168 6
      vertex 80.3817 8.71352 6
    endloop
  endfacet
  facet normal -0.707106 -0.707108 -0
    outer loop
      vertex 80.7135 8.38168 6
      vertex 80.3817 8.71352 0
      vertex 80.7135 8.38168 0
    endloop
  endfacet
  facet normal -0.891007 -0.453989 0
    outer loop
      vertex 80.9266 7.96352 0
      vertex 80.7135 8.38168 6
      vertex 80.7135 8.38168 0
    endloop
  endfacet
  facet normal -0.891007 -0.453989 0
    outer loop
      vertex 80.7135 8.38168 6
      vertex 80.9266 7.96352 0
      vertex 80.9266 7.96352 6
    endloop
  endfacet
  facet normal 0.156436 -0.987688 0
    outer loop
      vertex 79.0365 8.92658 0
      vertex 79.5 9 6
      vertex 79.0365 8.92658 6
    endloop
  endfacet
  facet normal 0.156436 -0.987688 0
    outer loop
      vertex 79.5 9 6
      vertex 79.0365 8.92658 0
      vertex 79.5 9 0
    endloop
  endfacet
  facet normal 0.453991 -0.891006 0
    outer loop
      vertex 78.6183 8.71352 0
      vertex 79.0365 8.92658 6
      vertex 78.6183 8.71352 6
    endloop
  endfacet
  facet normal 0.453991 -0.891006 0
    outer loop
      vertex 79.0365 8.92658 6
      vertex 78.6183 8.71352 0
      vertex 79.0365 8.92658 0
    endloop
  endfacet
  facet normal 0.707106 -0.707108 0
    outer loop
      vertex 78.2865 8.38168 0
      vertex 78.6183 8.71352 6
      vertex 78.2865 8.38168 6
    endloop
  endfacet
  facet normal 0.707106 -0.707108 0
    outer loop
      vertex 78.6183 8.71352 6
      vertex 78.2865 8.38168 0
      vertex 78.6183 8.71352 0
    endloop
  endfacet
  facet normal -0.453991 0.891006 0
    outer loop
      vertex 80.3817 6.28647 0
      vertex 79.9635 6.07341 6
      vertex 80.3817 6.28647 6
    endloop
  endfacet
  facet normal -0.453991 0.891006 0
    outer loop
      vertex 79.9635 6.07341 6
      vertex 80.3817 6.28647 0
      vertex 79.9635 6.07341 0
    endloop
  endfacet
  facet normal -0.707106 0.707108 0
    outer loop
      vertex 80.7135 6.61832 0
      vertex 80.3817 6.28647 6
      vertex 80.7135 6.61832 6
    endloop
  endfacet
  facet normal -0.707106 0.707108 0
    outer loop
      vertex 80.3817 6.28647 6
      vertex 80.7135 6.61832 0
      vertex 80.3817 6.28647 0
    endloop
  endfacet
  facet normal 0.891007 0.453989 0
    outer loop
      vertex 78.2865 6.61832 6
      vertex 78.0734 7.03647 0
      vertex 78.0734 7.03647 6
    endloop
  endfacet
  facet normal 0.891007 0.453989 0
    outer loop
      vertex 78.0734 7.03647 0
      vertex 78.2865 6.61832 6
      vertex 78.2865 6.61832 0
    endloop
  endfacet
  facet normal 0.453991 0.891006 -0
    outer loop
      vertex 79.0365 6.07341 0
      vertex 78.6183 6.28647 6
      vertex 79.0365 6.07341 6
    endloop
  endfacet
  facet normal 0.453991 0.891006 0
    outer loop
      vertex 78.6183 6.28647 6
      vertex 79.0365 6.07341 0
      vertex 78.6183 6.28647 0
    endloop
  endfacet
  facet normal 0.707106 0.707108 -0
    outer loop
      vertex 78.6183 6.28647 0
      vertex 78.2865 6.61832 6
      vertex 78.6183 6.28647 6
    endloop
  endfacet
  facet normal 0.707106 0.707108 0
    outer loop
      vertex 78.2865 6.61832 6
      vertex 78.6183 6.28647 0
      vertex 78.2865 6.61832 0
    endloop
  endfacet
  facet normal -0.156436 -0.987688 0
    outer loop
      vertex 79.5 9 0
      vertex 79.9635 8.92658 6
      vertex 79.5 9 6
    endloop
  endfacet
  facet normal -0.156436 -0.987688 -0
    outer loop
      vertex 79.9635 8.92658 6
      vertex 79.5 9 0
      vertex 79.9635 8.92658 0
    endloop
  endfacet
  facet normal 0.987688 0.156439 0
    outer loop
      vertex 78.0734 7.03647 6
      vertex 78 7.5 0
      vertex 78 7.5 6
    endloop
  endfacet
  facet normal 0.987688 0.156439 0
    outer loop
      vertex 78 7.5 0
      vertex 78.0734 7.03647 6
      vertex 78.0734 7.03647 0
    endloop
  endfacet
  facet normal 0.891007 -0.453989 0
    outer loop
      vertex 78.0734 7.96352 6
      vertex 78.2865 8.38168 0
      vertex 78.2865 8.38168 6
    endloop
  endfacet
  facet normal 0.891007 -0.453989 0
    outer loop
      vertex 78.2865 8.38168 0
      vertex 78.0734 7.96352 6
      vertex 78.0734 7.96352 0
    endloop
  endfacet
  facet normal -0.891007 0.453989 0
    outer loop
      vertex 80.7135 6.61832 0
      vertex 80.9266 7.03647 6
      vertex 80.9266 7.03647 0
    endloop
  endfacet
  facet normal -0.891007 0.453989 0
    outer loop
      vertex 80.9266 7.03647 6
      vertex 80.7135 6.61832 0
      vertex 80.7135 6.61832 6
    endloop
  endfacet
  facet normal -0.156434 0.987688 0
    outer loop
      vertex 79.9635 6.07341 0
      vertex 79.5 6 6
      vertex 79.9635 6.07341 6
    endloop
  endfacet
  facet normal -0.156434 0.987688 0
    outer loop
      vertex 79.5 6 6
      vertex 79.9635 6.07341 0
      vertex 79.5 6 0
    endloop
  endfacet
  facet normal -0.987688 0.156439 0
    outer loop
      vertex 80.9266 7.03647 0
      vertex 81 7.5 6
      vertex 81 7.5 0
    endloop
  endfacet
  facet normal -0.987688 0.156439 0
    outer loop
      vertex 81 7.5 6
      vertex 80.9266 7.03647 0
      vertex 80.9266 7.03647 6
    endloop
  endfacet
  facet normal -0.987688 -0.156435 0
    outer loop
      vertex 31.75 7.5 0
      vertex 31.5175 8.96783 6
      vertex 31.5175 8.96783 0
    endloop
  endfacet
  facet normal -0.987688 -0.156435 0
    outer loop
      vertex 31.5175 8.96783 6
      vertex 31.75 7.5 0
      vertex 31.75 7.5 6
    endloop
  endfacet
  facet normal 0.156435 -0.987688 0
    outer loop
      vertex 25.5322 12.0175 0
      vertex 27 12.25 6
      vertex 25.5322 12.0175 6
    endloop
  endfacet
  facet normal 0.156435 -0.987688 0
    outer loop
      vertex 27 12.25 6
      vertex 25.5322 12.0175 0
      vertex 27 12.25 0
    endloop
  endfacet
  facet normal -0.156434 0.987688 1.51815e-07
    outer loop
      vertex 27.4635 2.82342 4.42658
      vertex 27 2.75 6
      vertex 28.4678 2.98248 6
    endloop
  endfacet
  facet normal -0.156435 0.987688 0
    outer loop
      vertex 27 2.75 6
      vertex 27.4635 2.82342 4.42658
      vertex 27 2.75 4.5
    endloop
  endfacet
  facet normal -0.156434 0.987688 -1.91797e-07
    outer loop
      vertex 28.4678 2.98248 6
      vertex 27.8817 2.88964 4.21352
      vertex 27.4635 2.82342 4.42658
    endloop
  endfacet
  facet normal -0.156435 0.987688 1.47432e-07
    outer loop
      vertex 28.4678 2.98248 6
      vertex 28.2135 2.9422 3.88168
      vertex 27.8817 2.88964 4.21352
    endloop
  endfacet
  facet normal -0.156434 0.987688 3.40283e-08
    outer loop
      vertex 28.4678 2.98248 6
      vertex 28.4266 2.97595 3.46352
      vertex 28.2135 2.9422 3.88168
    endloop
  endfacet
  facet normal -0.156432 0.987689 0
    outer loop
      vertex 28.4266 2.97595 3.46352
      vertex 28.4678 2.98248 6
      vertex 28.4678 2.98248 3.20311
    endloop
  endfacet
  facet normal -0.156432 0.987689 0
    outer loop
      vertex 28.4678 2.98248 0
      vertex 28.4266 2.97595 2.53647
      vertex 28.4678 2.98248 2.79689
    endloop
  endfacet
  facet normal -0.156434 0.987688 -3.40283e-08
    outer loop
      vertex 28.4678 2.98248 0
      vertex 28.2135 2.9422 2.11832
      vertex 28.4266 2.97595 2.53647
    endloop
  endfacet
  facet normal -0.156435 0.987688 -1.47432e-07
    outer loop
      vertex 28.4678 2.98248 0
      vertex 27.8817 2.88964 1.78647
      vertex 28.2135 2.9422 2.11832
    endloop
  endfacet
  facet normal -0.156434 0.987688 1.91797e-07
    outer loop
      vertex 28.4678 2.98248 0
      vertex 27.4635 2.82342 1.57341
      vertex 27.8817 2.88964 1.78647
    endloop
  endfacet
  facet normal -0.156434 0.987688 -1.51816e-07
    outer loop
      vertex 27 2.75 0
      vertex 27.4635 2.82342 1.57341
      vertex 28.4678 2.98248 0
    endloop
  endfacet
  facet normal -0.156435 0.987688 0
    outer loop
      vertex 27.4635 2.82342 1.57341
      vertex 27 2.75 0
      vertex 27 2.75 1.5
    endloop
  endfacet
  facet normal -0.45399 0.891007 0
    outer loop
      vertex 29.792 3.65717 6
      vertex 28.4678 2.98248 3.20311
      vertex 28.4678 2.98248 6
    endloop
  endfacet
  facet normal -0.45399 0.891007 -1.33368e-07
    outer loop
      vertex 29.792 3.65717 6
      vertex 28.5 2.99887 3
      vertex 28.4678 2.98248 3.20311
    endloop
  endfacet
  facet normal -0.45399 0.891007 0
    outer loop
      vertex 29.792 3.65717 0
      vertex 28.5 2.99887 3
      vertex 29.792 3.65717 6
    endloop
  endfacet
  facet normal -0.45399 0.891007 1.33368e-07
    outer loop
      vertex 28.5 2.99887 3
      vertex 29.792 3.65717 0
      vertex 28.4678 2.98248 2.79689
    endloop
  endfacet
  facet normal -0.45399 0.891007 0
    outer loop
      vertex 28.4678 2.98248 2.79689
      vertex 29.792 3.65717 0
      vertex 28.4678 2.98248 0
    endloop
  endfacet
  facet normal -0.707107 -0.707106 0
    outer loop
      vertex 30.8428 10.292 0
      vertex 29.792 11.3428 6
      vertex 29.792 11.3428 0
    endloop
  endfacet
  facet normal -0.707107 -0.707106 0
    outer loop
      vertex 29.792 11.3428 6
      vertex 30.8428 10.292 0
      vertex 30.8428 10.292 6
    endloop
  endfacet
  facet normal -0.891007 -0.45399 0
    outer loop
      vertex 31.5175 8.96783 0
      vertex 30.8428 10.292 6
      vertex 30.8428 10.292 0
    endloop
  endfacet
  facet normal -0.891007 -0.45399 0
    outer loop
      vertex 30.8428 10.292 6
      vertex 31.5175 8.96783 0
      vertex 31.5175 8.96783 6
    endloop
  endfacet
  facet normal 0.707107 -0.707106 0
    outer loop
      vertex 23.1572 10.292 6
      vertex 24.208 11.3428 0
      vertex 24.208 11.3428 6
    endloop
  endfacet
  facet normal 0.707107 -0.707106 0
    outer loop
      vertex 24.208 11.3428 0
      vertex 23.1572 10.292 6
      vertex 23.1572 10.292 0
    endloop
  endfacet
  facet normal 0.891006 -0.453991 0
    outer loop
      vertex 22.4825 8.96783 6
      vertex 23.1572 10.292 0
      vertex 23.1572 10.292 6
    endloop
  endfacet
  facet normal 0.891006 -0.453991 0
    outer loop
      vertex 23.1572 10.292 0
      vertex 22.4825 8.96783 6
      vertex 22.4825 8.96783 0
    endloop
  endfacet
  facet normal 0.45399 -0.891007 0
    outer loop
      vertex 24.208 11.3428 0
      vertex 25.5322 12.0175 6
      vertex 24.208 11.3428 6
    endloop
  endfacet
  facet normal 0.45399 -0.891007 0
    outer loop
      vertex 25.5322 12.0175 6
      vertex 24.208 11.3428 0
      vertex 25.5322 12.0175 0
    endloop
  endfacet
  facet normal 0.45399 0.891007 -0
    outer loop
      vertex 25.5322 2.98248 3.2031
      vertex 24.208 3.65717 6
      vertex 25.5322 2.98248 6
    endloop
  endfacet
  facet normal 0.453987 0.891008 -1.70084e-06
    outer loop
      vertex 25.5 2.99887 3
      vertex 24.208 3.65717 6
      vertex 25.5322 2.98248 3.2031
    endloop
  endfacet
  facet normal 0.453987 0.891008 1.70083e-06
    outer loop
      vertex 24.208 3.65717 0
      vertex 25.5 2.99887 3
      vertex 25.5322 2.98248 2.7969
    endloop
  endfacet
  facet normal 0.45399 0.891007 0
    outer loop
      vertex 24.208 3.65717 0
      vertex 25.5322 2.98248 2.7969
      vertex 25.5322 2.98248 0
    endloop
  endfacet
  facet normal 0.45399 0.891007 0
    outer loop
      vertex 25.5 2.99887 3
      vertex 24.208 3.65717 0
      vertex 24.208 3.65717 6
    endloop
  endfacet
  facet normal 0.891006 0.453991 0
    outer loop
      vertex 23.1572 4.70802 6
      vertex 22.4825 6.03217 0
      vertex 22.4825 6.03217 6
    endloop
  endfacet
  facet normal 0.891006 0.453991 0
    outer loop
      vertex 22.4825 6.03217 0
      vertex 23.1572 4.70802 6
      vertex 23.1572 4.70802 0
    endloop
  endfacet
  facet normal -0.156435 -0.987688 0
    outer loop
      vertex 27 12.25 0
      vertex 28.4678 12.0175 6
      vertex 27 12.25 6
    endloop
  endfacet
  facet normal -0.156435 -0.987688 -0
    outer loop
      vertex 28.4678 12.0175 6
      vertex 27 12.25 0
      vertex 28.4678 12.0175 0
    endloop
  endfacet
  facet normal -0.45399 -0.891007 0
    outer loop
      vertex 28.4678 12.0175 0
      vertex 29.792 11.3428 6
      vertex 28.4678 12.0175 6
    endloop
  endfacet
  facet normal -0.45399 -0.891007 -0
    outer loop
      vertex 29.792 11.3428 6
      vertex 28.4678 12.0175 0
      vertex 29.792 11.3428 0
    endloop
  endfacet
  facet normal 0.987688 -0.156434 0
    outer loop
      vertex 22.25 7.5 6
      vertex 22.4825 8.96783 0
      vertex 22.4825 8.96783 6
    endloop
  endfacet
  facet normal 0.987688 -0.156434 0
    outer loop
      vertex 22.4825 8.96783 0
      vertex 22.25 7.5 6
      vertex 22.25 7.5 0
    endloop
  endfacet
  facet normal -0.987688 0.156435 0
    outer loop
      vertex 31.5175 6.03217 0
      vertex 31.75 7.5 6
      vertex 31.75 7.5 0
    endloop
  endfacet
  facet normal -0.987688 0.156435 0
    outer loop
      vertex 31.75 7.5 6
      vertex 31.5175 6.03217 0
      vertex 31.5175 6.03217 6
    endloop
  endfacet
  facet normal -0.707107 0.707106 0
    outer loop
      vertex 29.792 3.65717 0
      vertex 30.8428 4.70802 6
      vertex 30.8428 4.70802 0
    endloop
  endfacet
  facet normal -0.707107 0.707106 0
    outer loop
      vertex 30.8428 4.70802 6
      vertex 29.792 3.65717 0
      vertex 29.792 3.65717 6
    endloop
  endfacet
  facet normal -0.891007 0.45399 0
    outer loop
      vertex 30.8428 4.70802 0
      vertex 31.5175 6.03217 6
      vertex 31.5175 6.03217 0
    endloop
  endfacet
  facet normal -0.891007 0.45399 0
    outer loop
      vertex 31.5175 6.03217 6
      vertex 30.8428 4.70802 0
      vertex 30.8428 4.70802 6
    endloop
  endfacet
  facet normal 0.156434 0.987688 0
    outer loop
      vertex 26.5365 2.82342 4.42658
      vertex 27 2.75 6
      vertex 27 2.75 4.5
    endloop
  endfacet
  facet normal 0.156434 0.987688 -3.78194e-08
    outer loop
      vertex 27 2.75 6
      vertex 26.5365 2.82342 4.42658
      vertex 25.5322 2.98248 6
    endloop
  endfacet
  facet normal 0.156434 0.987688 -3.34893e-07
    outer loop
      vertex 26.1183 2.88964 4.21352
      vertex 25.5322 2.98248 6
      vertex 26.5365 2.82342 4.42658
    endloop
  endfacet
  facet normal 0.156435 0.987688 2.16751e-08
    outer loop
      vertex 25.7865 2.9422 3.88168
      vertex 25.5322 2.98248 6
      vertex 26.1183 2.88964 4.21352
    endloop
  endfacet
  facet normal 0.156434 0.987688 -7.99669e-08
    outer loop
      vertex 25.5734 2.97595 3.46352
      vertex 25.5322 2.98248 6
      vertex 25.7865 2.9422 3.88168
    endloop
  endfacet
  facet normal 0.156439 0.987688 0
    outer loop
      vertex 25.5322 2.98248 6
      vertex 25.5734 2.97595 3.46352
      vertex 25.5322 2.98248 3.2031
    endloop
  endfacet
  facet normal 0.156434 0.987688 -0
    outer loop
      vertex 27 2.75 0
      vertex 26.5365 2.82342 1.57341
      vertex 27 2.75 1.5
    endloop
  endfacet
  facet normal 0.156434 0.987688 3.78194e-08
    outer loop
      vertex 25.5322 2.98248 0
      vertex 26.5365 2.82342 1.57341
      vertex 27 2.75 0
    endloop
  endfacet
  facet normal 0.156434 0.987688 3.34893e-07
    outer loop
      vertex 26.5365 2.82342 1.57341
      vertex 25.5322 2.98248 0
      vertex 26.1183 2.88964 1.78647
    endloop
  endfacet
  facet normal 0.156439 0.987688 0
    outer loop
      vertex 25.5734 2.97595 2.53647
      vertex 25.5322 2.98248 0
      vertex 25.5322 2.98248 2.7969
    endloop
  endfacet
  facet normal 0.156434 0.987688 7.9967e-08
    outer loop
      vertex 25.7865 2.9422 2.11832
      vertex 25.5322 2.98248 0
      vertex 25.5734 2.97595 2.53647
    endloop
  endfacet
  facet normal 0.156435 0.987688 -2.16751e-08
    outer loop
      vertex 26.1183 2.88964 1.78647
      vertex 25.5322 2.98248 0
      vertex 25.7865 2.9422 2.11832
    endloop
  endfacet
  facet normal 0.707107 0.707106 0
    outer loop
      vertex 24.208 3.65717 6
      vertex 23.1572 4.70802 0
      vertex 23.1572 4.70802 6
    endloop
  endfacet
  facet normal 0.707107 0.707106 0
    outer loop
      vertex 23.1572 4.70802 0
      vertex 24.208 3.65717 6
      vertex 24.208 3.65717 0
    endloop
  endfacet
  facet normal 0.987688 0.156434 0
    outer loop
      vertex 22.4825 6.03217 6
      vertex 22.25 7.5 0
      vertex 22.25 7.5 6
    endloop
  endfacet
  facet normal 0.987688 0.156434 0
    outer loop
      vertex 22.25 7.5 0
      vertex 22.4825 6.03217 6
      vertex 22.4825 6.03217 0
    endloop
  endfacet
  facet normal -0.987688 -0.156435 0
    outer loop
      vertex 64.75 7.5 0
      vertex 64.5175 8.96783 6
      vertex 64.5175 8.96783 0
    endloop
  endfacet
  facet normal -0.987688 -0.156435 0
    outer loop
      vertex 64.5175 8.96783 6
      vertex 64.75 7.5 0
      vertex 64.75 7.5 6
    endloop
  endfacet
  facet normal 0.156435 -0.987688 0
    outer loop
      vertex 58.5322 12.0175 0
      vertex 60 12.25 6
      vertex 58.5322 12.0175 6
    endloop
  endfacet
  facet normal 0.156435 -0.987688 0
    outer loop
      vertex 60 12.25 6
      vertex 58.5322 12.0175 0
      vertex 60 12.25 0
    endloop
  endfacet
  facet normal -0.45399 0.891007 0
    outer loop
      vertex 62.792 3.65717 6
      vertex 61.4678 2.98248 3.20311
      vertex 61.4678 2.98248 6
    endloop
  endfacet
  facet normal -0.45399 0.891007 -1.33368e-07
    outer loop
      vertex 62.792 3.65717 6
      vertex 61.5 2.99887 3
      vertex 61.4678 2.98248 3.20311
    endloop
  endfacet
  facet normal -0.45399 0.891007 0
    outer loop
      vertex 62.792 3.65717 0
      vertex 61.5 2.99887 3
      vertex 62.792 3.65717 6
    endloop
  endfacet
  facet normal -0.45399 0.891007 1.33368e-07
    outer loop
      vertex 61.5 2.99887 3
      vertex 62.792 3.65717 0
      vertex 61.4678 2.98248 2.79689
    endloop
  endfacet
  facet normal -0.45399 0.891007 0
    outer loop
      vertex 61.4678 2.98248 2.79689
      vertex 62.792 3.65717 0
      vertex 61.4678 2.98248 0
    endloop
  endfacet
  facet normal -0.707107 -0.707106 0
    outer loop
      vertex 63.8428 10.292 0
      vertex 62.792 11.3428 6
      vertex 62.792 11.3428 0
    endloop
  endfacet
  facet normal -0.707107 -0.707106 0
    outer loop
      vertex 62.792 11.3428 6
      vertex 63.8428 10.292 0
      vertex 63.8428 10.292 6
    endloop
  endfacet
  facet normal -0.891007 -0.45399 0
    outer loop
      vertex 64.5175 8.96783 0
      vertex 63.8428 10.292 6
      vertex 63.8428 10.292 0
    endloop
  endfacet
  facet normal -0.891007 -0.45399 0
    outer loop
      vertex 63.8428 10.292 6
      vertex 64.5175 8.96783 0
      vertex 64.5175 8.96783 6
    endloop
  endfacet
  facet normal 0.707107 -0.707106 0
    outer loop
      vertex 56.1572 10.292 6
      vertex 57.208 11.3428 0
      vertex 57.208 11.3428 6
    endloop
  endfacet
  facet normal 0.707107 -0.707106 0
    outer loop
      vertex 57.208 11.3428 0
      vertex 56.1572 10.292 6
      vertex 56.1572 10.292 0
    endloop
  endfacet
  facet normal 0.891007 -0.45399 0
    outer loop
      vertex 55.4825 8.96783 6
      vertex 56.1572 10.292 0
      vertex 56.1572 10.292 6
    endloop
  endfacet
  facet normal 0.891007 -0.45399 0
    outer loop
      vertex 56.1572 10.292 0
      vertex 55.4825 8.96783 6
      vertex 55.4825 8.96783 0
    endloop
  endfacet
  facet normal 0.45399 -0.891007 0
    outer loop
      vertex 57.208 11.3428 0
      vertex 58.5322 12.0175 6
      vertex 57.208 11.3428 6
    endloop
  endfacet
  facet normal 0.45399 -0.891007 0
    outer loop
      vertex 58.5322 12.0175 6
      vertex 57.208 11.3428 0
      vertex 58.5322 12.0175 0
    endloop
  endfacet
  facet normal 0.45399 0.891007 -0
    outer loop
      vertex 58.5322 2.98248 3.2031
      vertex 57.208 3.65717 6
      vertex 58.5322 2.98248 6
    endloop
  endfacet
  facet normal 0.453987 0.891008 -1.70084e-06
    outer loop
      vertex 58.5 2.99887 3
      vertex 57.208 3.65717 6
      vertex 58.5322 2.98248 3.2031
    endloop
  endfacet
  facet normal 0.453987 0.891008 1.70083e-06
    outer loop
      vertex 57.208 3.65717 0
      vertex 58.5 2.99887 3
      vertex 58.5322 2.98248 2.7969
    endloop
  endfacet
  facet normal 0.45399 0.891007 0
    outer loop
      vertex 57.208 3.65717 0
      vertex 58.5322 2.98248 2.7969
      vertex 58.5322 2.98248 0
    endloop
  endfacet
  facet normal 0.45399 0.891007 0
    outer loop
      vertex 58.5 2.99887 3
      vertex 57.208 3.65717 0
      vertex 57.208 3.65717 6
    endloop
  endfacet
  facet normal 0.891007 0.45399 0
    outer loop
      vertex 56.1572 4.70802 6
      vertex 55.4825 6.03217 0
      vertex 55.4825 6.03217 6
    endloop
  endfacet
  facet normal 0.891007 0.45399 0
    outer loop
      vertex 55.4825 6.03217 0
      vertex 56.1572 4.70802 6
      vertex 56.1572 4.70802 0
    endloop
  endfacet
  facet normal -0.156435 -0.987688 0
    outer loop
      vertex 60 12.25 0
      vertex 61.4678 12.0175 6
      vertex 60 12.25 6
    endloop
  endfacet
  facet normal -0.156435 -0.987688 -0
    outer loop
      vertex 61.4678 12.0175 6
      vertex 60 12.25 0
      vertex 61.4678 12.0175 0
    endloop
  endfacet
  facet normal -0.45399 -0.891007 0
    outer loop
      vertex 61.4678 12.0175 0
      vertex 62.792 11.3428 6
      vertex 61.4678 12.0175 6
    endloop
  endfacet
  facet normal -0.45399 -0.891007 -0
    outer loop
      vertex 62.792 11.3428 6
      vertex 61.4678 12.0175 0
      vertex 62.792 11.3428 0
    endloop
  endfacet
  facet normal 0.987688 -0.156435 0
    outer loop
      vertex 55.25 7.5 6
      vertex 55.4825 8.96783 0
      vertex 55.4825 8.96783 6
    endloop
  endfacet
  facet normal 0.987688 -0.156435 0
    outer loop
      vertex 55.4825 8.96783 0
      vertex 55.25 7.5 6
      vertex 55.25 7.5 0
    endloop
  endfacet
  facet normal -0.987688 0.156435 0
    outer loop
      vertex 64.5175 6.03217 0
      vertex 64.75 7.5 6
      vertex 64.75 7.5 0
    endloop
  endfacet
  facet normal -0.987688 0.156435 0
    outer loop
      vertex 64.75 7.5 6
      vertex 64.5175 6.03217 0
      vertex 64.5175 6.03217 6
    endloop
  endfacet
  facet normal -0.707107 0.707106 0
    outer loop
      vertex 62.792 3.65717 0
      vertex 63.8428 4.70802 6
      vertex 63.8428 4.70802 0
    endloop
  endfacet
  facet normal -0.707107 0.707106 0
    outer loop
      vertex 63.8428 4.70802 6
      vertex 62.792 3.65717 0
      vertex 62.792 3.65717 6
    endloop
  endfacet
  facet normal -0.891007 0.45399 0
    outer loop
      vertex 63.8428 4.70802 0
      vertex 64.5175 6.03217 6
      vertex 64.5175 6.03217 0
    endloop
  endfacet
  facet normal -0.891007 0.45399 0
    outer loop
      vertex 64.5175 6.03217 6
      vertex 63.8428 4.70802 0
      vertex 63.8428 4.70802 6
    endloop
  endfacet
  facet normal 0.156435 0.987688 0
    outer loop
      vertex 59.5365 2.82342 4.42658
      vertex 60 2.75 6
      vertex 60 2.75 4.5
    endloop
  endfacet
  facet normal 0.156434 0.987688 1.51815e-07
    outer loop
      vertex 60 2.75 6
      vertex 59.5365 2.82342 4.42658
      vertex 58.5322 2.98248 6
    endloop
  endfacet
  facet normal 0.156433 0.987689 -5.35478e-07
    outer loop
      vertex 59.1183 2.88964 4.21352
      vertex 58.5322 2.98248 6
      vertex 59.5365 2.82342 4.42658
    endloop
  endfacet
  facet normal 0.156435 0.987688 2.43806e-07
    outer loop
      vertex 58.7865 2.9422 3.88168
      vertex 58.5322 2.98248 6
      vertex 59.1183 2.88964 4.21352
    endloop
  endfacet
  facet normal 0.156433 0.987689 -1.02034e-07
    outer loop
      vertex 58.5734 2.97595 3.46352
      vertex 58.5322 2.98248 6
      vertex 58.7865 2.9422 3.88168
    endloop
  endfacet
  facet normal 0.156439 0.987688 0
    outer loop
      vertex 58.5322 2.98248 6
      vertex 58.5734 2.97595 3.46352
      vertex 58.5322 2.98248 3.2031
    endloop
  endfacet
  facet normal 0.156435 0.987688 -0
    outer loop
      vertex 60 2.75 0
      vertex 59.5365 2.82342 1.57341
      vertex 60 2.75 1.5
    endloop
  endfacet
  facet normal 0.156434 0.987688 -1.51816e-07
    outer loop
      vertex 58.5322 2.98248 0
      vertex 59.5365 2.82342 1.57341
      vertex 60 2.75 0
    endloop
  endfacet
  facet normal 0.156433 0.987689 5.35478e-07
    outer loop
      vertex 59.5365 2.82342 1.57341
      vertex 58.5322 2.98248 0
      vertex 59.1183 2.88964 1.78647
    endloop
  endfacet
  facet normal 0.156439 0.987688 0
    outer loop
      vertex 58.5734 2.97595 2.53647
      vertex 58.5322 2.98248 0
      vertex 58.5322 2.98248 2.7969
    endloop
  endfacet
  facet normal 0.156433 0.987689 1.02034e-07
    outer loop
      vertex 58.7865 2.9422 2.11832
      vertex 58.5322 2.98248 0
      vertex 58.5734 2.97595 2.53647
    endloop
  endfacet
  facet normal 0.156435 0.987688 -2.43806e-07
    outer loop
      vertex 59.1183 2.88964 1.78647
      vertex 58.5322 2.98248 0
      vertex 58.7865 2.9422 2.11832
    endloop
  endfacet
  facet normal 0.707107 0.707106 0
    outer loop
      vertex 57.208 3.65717 6
      vertex 56.1572 4.70802 0
      vertex 56.1572 4.70802 6
    endloop
  endfacet
  facet normal 0.707107 0.707106 0
    outer loop
      vertex 56.1572 4.70802 0
      vertex 57.208 3.65717 6
      vertex 57.208 3.65717 0
    endloop
  endfacet
  facet normal 0.987688 0.156435 0
    outer loop
      vertex 55.4825 6.03217 6
      vertex 55.25 7.5 0
      vertex 55.25 7.5 6
    endloop
  endfacet
  facet normal 0.987688 0.156435 0
    outer loop
      vertex 55.25 7.5 0
      vertex 55.4825 6.03217 6
      vertex 55.4825 6.03217 0
    endloop
  endfacet
  facet normal -0.156434 0.987688 1.51815e-07
    outer loop
      vertex 60.4635 2.82342 4.42658
      vertex 60 2.75 6
      vertex 61.4678 2.98248 6
    endloop
  endfacet
  facet normal -0.156435 0.987688 0
    outer loop
      vertex 60 2.75 6
      vertex 60.4635 2.82342 4.42658
      vertex 60 2.75 4.5
    endloop
  endfacet
  facet normal -0.156434 0.987688 1.51886e-07
    outer loop
      vertex 61.4678 2.98248 6
      vertex 60.8817 2.88964 4.21352
      vertex 60.4635 2.82342 4.42658
    endloop
  endfacet
  facet normal -0.156434 0.987688 5.10602e-08
    outer loop
      vertex 61.4678 2.98248 6
      vertex 61.2135 2.9422 3.88168
      vertex 60.8817 2.88964 4.21352
    endloop
  endfacet
  facet normal -0.156435 0.987688 1.70093e-07
    outer loop
      vertex 61.4678 2.98248 6
      vertex 61.4266 2.97595 3.46352
      vertex 61.2135 2.9422 3.88168
    endloop
  endfacet
  facet normal -0.156425 0.98769 0
    outer loop
      vertex 61.4266 2.97595 3.46352
      vertex 61.4678 2.98248 6
      vertex 61.4678 2.98248 3.20311
    endloop
  endfacet
  facet normal -0.156425 0.98769 0
    outer loop
      vertex 61.4678 2.98248 0
      vertex 61.4266 2.97595 2.53647
      vertex 61.4678 2.98248 2.79689
    endloop
  endfacet
  facet normal -0.156435 0.987688 -1.70093e-07
    outer loop
      vertex 61.4678 2.98248 0
      vertex 61.2135 2.9422 2.11832
      vertex 61.4266 2.97595 2.53647
    endloop
  endfacet
  facet normal -0.156434 0.987688 -5.10603e-08
    outer loop
      vertex 61.4678 2.98248 0
      vertex 60.8817 2.88964 1.78647
      vertex 61.2135 2.9422 2.11832
    endloop
  endfacet
  facet normal -0.156434 0.987688 -1.51886e-07
    outer loop
      vertex 61.4678 2.98248 0
      vertex 60.4635 2.82342 1.57341
      vertex 60.8817 2.88964 1.78647
    endloop
  endfacet
  facet normal -0.156434 0.987688 -1.51816e-07
    outer loop
      vertex 60 2.75 0
      vertex 60.4635 2.82342 1.57341
      vertex 61.4678 2.98248 0
    endloop
  endfacet
  facet normal -0.156435 0.987688 0
    outer loop
      vertex 60.4635 2.82342 1.57341
      vertex 60 2.75 0
      vertex 60 2.75 1.5
    endloop
  endfacet
  facet normal -1 0 0
    outer loop
      vertex 0 0 0
      vertex 0 15 6
      vertex 0 15 0
    endloop
  endfacet
  facet normal -1 -0 0
    outer loop
      vertex 0 15 6
      vertex 0 0 0
      vertex 0 0 6
    endloop
  endfacet
  facet normal 0 0 1
    outer loop
      vertex 81 15 6
      vertex 80.9266 7.96352 6
      vertex 81 7.5 6
    endloop
  endfacet
  facet normal 0 0 1
    outer loop
      vertex 81 15 6
      vertex 80.7135 8.38168 6
      vertex 80.9266 7.96352 6
    endloop
  endfacet
  facet normal 0 0 1
    outer loop
      vertex 81 15 6
      vertex 80.3817 8.71352 6
      vertex 80.7135 8.38168 6
    endloop
  endfacet
  facet normal 0 0 1
    outer loop
      vertex 81 15 6
      vertex 79.9635 8.92658 6
      vertex 80.3817 8.71352 6
    endloop
  endfacet
  facet normal 0 0 1
    outer loop
      vertex 81 15 6
      vertex 79.5 9 6
      vertex 79.9635 8.92658 6
    endloop
  endfacet
  facet normal 0 0 1
    outer loop
      vertex 81 15 6
      vertex 79.0365 8.92658 6
      vertex 79.5 9 6
    endloop
  endfacet
  facet normal 0 0 1
    outer loop
      vertex 81 15 6
      vertex 78.6183 8.71352 6
      vertex 79.0365 8.92658 6
    endloop
  endfacet
  facet normal 0 0 1
    outer loop
      vertex 81 15 6
      vertex 78.2865 8.38168 6
      vertex 78.6183 8.71352 6
    endloop
  endfacet
  facet normal -0 0 1
    outer loop
      vertex 63.8428 10.292 6
      vertex 78.2865 8.38168 6
      vertex 81 15 6
    endloop
  endfacet
  facet normal 0 0 1
    outer loop
      vertex 78.0734 7.96352 6
      vertex 64.75 7.5 6
      vertex 78 7.5 6
    endloop
  endfacet
  facet normal -0 -0 1
    outer loop
      vertex 64.5175 8.96783 6
      vertex 78.2865 8.38168 6
      vertex 63.8428 10.292 6
    endloop
  endfacet
  facet normal 0 0 1
    outer loop
      vertex 78.0734 7.96352 6
      vertex 64.5175 8.96783 6
      vertex 64.75 7.5 6
    endloop
  endfacet
  facet normal 0 0 1
    outer loop
      vertex 78.2865 8.38168 6
      vertex 64.5175 8.96783 6
      vertex 78.0734 7.96352 6
    endloop
  endfacet
  facet normal 0 0 1
    outer loop
      vertex 81 15 6
      vertex 62.792 11.3428 6
      vertex 63.8428 10.292 6
    endloop
  endfacet
  facet normal 0 0 1
    outer loop
      vertex 81 15 6
      vertex 61.4678 12.0175 6
      vertex 62.792 11.3428 6
    endloop
  endfacet
  facet normal 0 0 1
    outer loop
      vertex 81 15 6
      vertex 60 12.25 6
      vertex 61.4678 12.0175 6
    endloop
  endfacet
  facet normal 0 0 1
    outer loop
      vertex 55.4825 8.96783 6
      vertex 31.75 7.5 6
      vertex 55.25 7.5 6
    endloop
  endfacet
  facet normal 0 0 1
    outer loop
      vertex 31.5175 8.96783 6
      vertex 55.4825 8.96783 6
      vertex 56.1572 10.292 6
    endloop
  endfacet
  facet normal 0 0 1
    outer loop
      vertex 30.8428 10.292 6
      vertex 56.1572 10.292 6
      vertex 57.208 11.3428 6
    endloop
  endfacet
  facet normal 0 0 1
    outer loop
      vertex 29.792 11.3428 6
      vertex 57.208 11.3428 6
      vertex 58.5322 12.0175 6
    endloop
  endfacet
  facet normal 0 0 1
    outer loop
      vertex 55.4825 8.96783 6
      vertex 31.5175 8.96783 6
      vertex 31.75 7.5 6
    endloop
  endfacet
  facet normal 0 0 1
    outer loop
      vertex 28.4678 12.0175 6
      vertex 58.5322 12.0175 6
      vertex 60 12.25 6
    endloop
  endfacet
  facet normal 0 0 1
    outer loop
      vertex 27 12.25 6
      vertex 60 12.25 6
      vertex 81 15 6
    endloop
  endfacet
  facet normal 0 0 1
    outer loop
      vertex 56.1572 10.292 6
      vertex 30.8428 10.292 6
      vertex 31.5175 8.96783 6
    endloop
  endfacet
  facet normal 0 0 1
    outer loop
      vertex 57.208 11.3428 6
      vertex 29.792 11.3428 6
      vertex 30.8428 10.292 6
    endloop
  endfacet
  facet normal 0 0 1
    outer loop
      vertex 58.5322 12.0175 6
      vertex 28.4678 12.0175 6
      vertex 29.792 11.3428 6
    endloop
  endfacet
  facet normal 0 0 1
    outer loop
      vertex 60 12.25 6
      vertex 27 12.25 6
      vertex 28.4678 12.0175 6
    endloop
  endfacet
  facet normal -0 0 1
    outer loop
      vertex 7.42658 7.96352 6
      vertex 22.25 7.5 6
      vertex 22.4825 8.96783 6
    endloop
  endfacet
  facet normal 0 0 1
    outer loop
      vertex 7.21352 8.38168 6
      vertex 22.4825 8.96783 6
      vertex 23.1572 10.292 6
    endloop
  endfacet
  facet normal 0 0 1
    outer loop
      vertex 6.88168 8.71352 6
      vertex 23.1572 10.292 6
      vertex 24.208 11.3428 6
    endloop
  endfacet
  facet normal 0 0 1
    outer loop
      vertex 0 15 6
      vertex 24.208 11.3428 6
      vertex 25.5322 12.0175 6
    endloop
  endfacet
  facet normal 0 0 1
    outer loop
      vertex 22.25 7.5 6
      vertex 7.42658 7.96352 6
      vertex 7.5 7.5 6
    endloop
  endfacet
  facet normal 0 0 1
    outer loop
      vertex 22.4825 8.96783 6
      vertex 7.21352 8.38168 6
      vertex 7.42658 7.96352 6
    endloop
  endfacet
  facet normal 0 0 1
    outer loop
      vertex 23.1572 10.292 6
      vertex 6.88168 8.71352 6
      vertex 7.21352 8.38168 6
    endloop
  endfacet
  facet normal 0 0 1
    outer loop
      vertex 24.208 11.3428 6
      vertex 6.46352 8.92658 6
      vertex 6.88168 8.71352 6
    endloop
  endfacet
  facet normal 0 0 1
    outer loop
      vertex 24.208 11.3428 6
      vertex 0 15 6
      vertex 6.46352 8.92658 6
    endloop
  endfacet
  facet normal 0 0 1
    outer loop
      vertex 0 15 6
      vertex 25.5322 12.0175 6
      vertex 27 12.25 6
    endloop
  endfacet
  facet normal 0 0 1
    outer loop
      vertex 4.57341 7.96352 6
      vertex 0 15 6
      vertex 4.5 7.5 6
    endloop
  endfacet
  facet normal 0 0 1
    outer loop
      vertex 4.78647 8.38168 6
      vertex 0 15 6
      vertex 4.57341 7.96352 6
    endloop
  endfacet
  facet normal 0 0 1
    outer loop
      vertex 5.11832 8.71352 6
      vertex 0 15 6
      vertex 4.78647 8.38168 6
    endloop
  endfacet
  facet normal 0 0 1
    outer loop
      vertex 5.53647 8.92658 6
      vertex 0 15 6
      vertex 5.11832 8.71352 6
    endloop
  endfacet
  facet normal 0 0 1
    outer loop
      vertex 6 9 6
      vertex 0 15 6
      vertex 5.53647 8.92658 6
    endloop
  endfacet
  facet normal 0 0 1
    outer loop
      vertex 6.46352 8.92658 6
      vertex 0 15 6
      vertex 6 9 6
    endloop
  endfacet
  facet normal -0 0 1
    outer loop
      vertex 0 15 6
      vertex 27 12.25 6
      vertex 81 15 6
    endloop
  endfacet
  facet normal -0 0 1
    outer loop
      vertex 80.9266 7.03647 6
      vertex 81 0 6
      vertex 81 7.5 6
    endloop
  endfacet
  facet normal -0 0 1
    outer loop
      vertex 80.7135 6.61832 6
      vertex 81 0 6
      vertex 80.9266 7.03647 6
    endloop
  endfacet
  facet normal -0 0 1
    outer loop
      vertex 80.3817 6.28647 6
      vertex 81 0 6
      vertex 80.7135 6.61832 6
    endloop
  endfacet
  facet normal -0 0 1
    outer loop
      vertex 79.9635 6.07341 6
      vertex 81 0 6
      vertex 80.3817 6.28647 6
    endloop
  endfacet
  facet normal -0 0 1
    outer loop
      vertex 79.5 6 6
      vertex 81 0 6
      vertex 79.9635 6.07341 6
    endloop
  endfacet
  facet normal 0 0 1
    outer loop
      vertex 79.0365 6.07341 6
      vertex 81 0 6
      vertex 79.5 6 6
    endloop
  endfacet
  facet normal 0 0 1
    outer loop
      vertex 78.6183 6.28647 6
      vertex 81 0 6
      vertex 79.0365 6.07341 6
    endloop
  endfacet
  facet normal 0 0 1
    outer loop
      vertex 78.2865 6.61832 6
      vertex 81 0 6
      vertex 78.6183 6.28647 6
    endloop
  endfacet
  facet normal 0 0 1
    outer loop
      vertex 64.5175 6.03217 6
      vertex 78.2865 6.61832 6
      vertex 78.0734 7.03647 6
    endloop
  endfacet
  facet normal -0 0 1
    outer loop
      vertex 64.75 7.5 6
      vertex 78.0734 7.03647 6
      vertex 78 7.5 6
    endloop
  endfacet
  facet normal 0 0 1
    outer loop
      vertex 64.5175 6.03217 6
      vertex 78.0734 7.03647 6
      vertex 64.75 7.5 6
    endloop
  endfacet
  facet normal 0 0 1
    outer loop
      vertex 78.2865 6.61832 6
      vertex 64.5175 6.03217 6
      vertex 63.8428 4.70802 6
    endloop
  endfacet
  facet normal 0 0 1
    outer loop
      vertex 78.2865 6.61832 6
      vertex 63.8428 4.70802 6
      vertex 81 0 6
    endloop
  endfacet
  facet normal -0 0 1
    outer loop
      vertex 62.792 3.65717 6
      vertex 81 0 6
      vertex 63.8428 4.70802 6
    endloop
  endfacet
  facet normal -0 0 1
    outer loop
      vertex 61.4678 2.98248 6
      vertex 81 0 6
      vertex 62.792 3.65717 6
    endloop
  endfacet
  facet normal -0 0 1
    outer loop
      vertex 60 2.75 6
      vertex 81 0 6
      vertex 61.4678 2.98248 6
    endloop
  endfacet
  facet normal -0 0 1
    outer loop
      vertex 31.75 7.5 6
      vertex 55.4825 6.03217 6
      vertex 55.25 7.5 6
    endloop
  endfacet
  facet normal 0 0 1
    outer loop
      vertex 31.5175 6.03217 6
      vertex 55.4825 6.03217 6
      vertex 31.75 7.5 6
    endloop
  endfacet
  facet normal 0 0 1
    outer loop
      vertex 55.4825 6.03217 6
      vertex 31.5175 6.03217 6
      vertex 56.1572 4.70802 6
    endloop
  endfacet
  facet normal 0 0 1
    outer loop
      vertex 30.8428 4.70802 6
      vertex 56.1572 4.70802 6
      vertex 31.5175 6.03217 6
    endloop
  endfacet
  facet normal 0 0 1
    outer loop
      vertex 56.1572 4.70802 6
      vertex 30.8428 4.70802 6
      vertex 57.208 3.65717 6
    endloop
  endfacet
  facet normal 0 0 1
    outer loop
      vertex 29.792 3.65717 6
      vertex 57.208 3.65717 6
      vertex 30.8428 4.70802 6
    endloop
  endfacet
  facet normal 0 0 1
    outer loop
      vertex 57.208 3.65717 6
      vertex 29.792 3.65717 6
      vertex 58.5322 2.98248 6
    endloop
  endfacet
  facet normal 0 0 1
    outer loop
      vertex 28.4678 2.98248 6
      vertex 58.5322 2.98248 6
      vertex 29.792 3.65717 6
    endloop
  endfacet
  facet normal 0 0 1
    outer loop
      vertex 58.5322 2.98248 6
      vertex 28.4678 2.98248 6
      vertex 60 2.75 6
    endloop
  endfacet
  facet normal 0 0 1
    outer loop
      vertex 27 2.75 6
      vertex 60 2.75 6
      vertex 28.4678 2.98248 6
    endloop
  endfacet
  facet normal 0 0 1
    outer loop
      vertex 60 2.75 6
      vertex 27 2.75 6
      vertex 81 0 6
    endloop
  endfacet
  facet normal 0 0 1
    outer loop
      vertex 7.42658 7.03647 6
      vertex 22.25 7.5 6
      vertex 7.5 7.5 6
    endloop
  endfacet
  facet normal 0 0 1
    outer loop
      vertex 22.25 7.5 6
      vertex 7.42658 7.03647 6
      vertex 22.4825 6.03217 6
    endloop
  endfacet
  facet normal -0 0 1
    outer loop
      vertex 7.21352 6.61832 6
      vertex 22.4825 6.03217 6
      vertex 7.42658 7.03647 6
    endloop
  endfacet
  facet normal 0 0 1
    outer loop
      vertex 22.4825 6.03217 6
      vertex 7.21352 6.61832 6
      vertex 23.1572 4.70802 6
    endloop
  endfacet
  facet normal -0 0 1
    outer loop
      vertex 6.88168 6.28647 6
      vertex 23.1572 4.70802 6
      vertex 7.21352 6.61832 6
    endloop
  endfacet
  facet normal 0 0 1
    outer loop
      vertex 23.1572 4.70802 6
      vertex 6.88168 6.28647 6
      vertex 24.208 3.65717 6
    endloop
  endfacet
  facet normal -0 0 1
    outer loop
      vertex 6.46352 6.07341 6
      vertex 24.208 3.65717 6
      vertex 6.88168 6.28647 6
    endloop
  endfacet
  facet normal 0 0 1
    outer loop
      vertex 0 0 6
      vertex 24.208 3.65717 6
      vertex 6.46352 6.07341 6
    endloop
  endfacet
  facet normal 0 0 1
    outer loop
      vertex 0 0 6
      vertex 6.46352 6.07341 6
      vertex 6 6 6
    endloop
  endfacet
  facet normal 0 0 1
    outer loop
      vertex 24.208 3.65717 6
      vertex 0 0 6
      vertex 25.5322 2.98248 6
    endloop
  endfacet
  facet normal 0 0 1
    outer loop
      vertex 0 0 6
      vertex 4.5 7.5 6
      vertex 0 15 6
    endloop
  endfacet
  facet normal 0 0 1
    outer loop
      vertex 4.5 7.5 6
      vertex 0 0 6
      vertex 4.57341 7.03647 6
    endloop
  endfacet
  facet normal 0 0 1
    outer loop
      vertex 27 2.75 6
      vertex 0 0 6
      vertex 81 0 6
    endloop
  endfacet
  facet normal 0 0 1
    outer loop
      vertex 25.5322 2.98248 6
      vertex 0 0 6
      vertex 27 2.75 6
    endloop
  endfacet
  facet normal 0 0 1
    outer loop
      vertex 5.53647 6.07341 6
      vertex 0 0 6
      vertex 6 6 6
    endloop
  endfacet
  facet normal 0 0 1
    outer loop
      vertex 5.11832 6.28647 6
      vertex 0 0 6
      vertex 5.53647 6.07341 6
    endloop
  endfacet
  facet normal 0 0 1
    outer loop
      vertex 4.78647 6.61832 6
      vertex 0 0 6
      vertex 5.11832 6.28647 6
    endloop
  endfacet
  facet normal 0 0 1
    outer loop
      vertex 4.57341 7.03647 6
      vertex 0 0 6
      vertex 4.78647 6.61832 6
    endloop
  endfacet
  facet normal 1 -0 0
    outer loop
      vertex 85.5 0 31
      vertex 85.5 35 26
      vertex 85.5 35 31
    endloop
  endfacet
  facet normal 1 0 0
    outer loop
      vertex 85.5 35 26
      vertex 85.5 0 31
      vertex 85.5 15 6
    endloop
  endfacet
  facet normal 1 0 0
    outer loop
      vertex 85.5 0 0
      vertex 85.5 15 6
      vertex 85.5 0 31
    endloop
  endfacet
  facet normal 1 0 0
    outer loop
      vertex 85.5 15 6
      vertex 85.5 0 0
      vertex 85.5 15 0
    endloop
  endfacet
  facet normal 0 0 -1
    outer loop
      vertex 85.5 0 0
      vertex 81 7.5 0
      vertex 85.5 15 0
    endloop
  endfacet
  facet normal 0 0 -1
    outer loop
      vertex 85.5 0 0
      vertex 80.9266 7.03647 0
      vertex 81 7.5 0
    endloop
  endfacet
  facet normal 0 0 -1
    outer loop
      vertex 85.5 0 0
      vertex 80.7135 6.61832 0
      vertex 80.9266 7.03647 0
    endloop
  endfacet
  facet normal 0 0 -1
    outer loop
      vertex 85.5 0 0
      vertex 80.3817 6.28647 0
      vertex 80.7135 6.61832 0
    endloop
  endfacet
  facet normal 0 0 -1
    outer loop
      vertex 85.5 0 0
      vertex 79.9635 6.07341 0
      vertex 80.3817 6.28647 0
    endloop
  endfacet
  facet normal 0 0 -1
    outer loop
      vertex 85.5 0 0
      vertex 79.5 6 0
      vertex 79.9635 6.07341 0
    endloop
  endfacet
  facet normal 0 0 -1
    outer loop
      vertex 85.5 0 0
      vertex 79.0365 6.07341 0
      vertex 79.5 6 0
    endloop
  endfacet
  facet normal 0 0 -1
    outer loop
      vertex 62.792 3.65717 0
      vertex 79.0365 6.07341 0
      vertex 85.5 0 0
    endloop
  endfacet
  facet normal 0 0 -1
    outer loop
      vertex 78.0734 7.03647 0
      vertex 64.75 7.5 0
      vertex 78 7.5 0
    endloop
  endfacet
  facet normal 0 0 -1
    outer loop
      vertex 64.5175 6.03217 0
      vertex 78.0734 7.03647 0
      vertex 78.2865 6.61832 0
    endloop
  endfacet
  facet normal 0 0 -1
    outer loop
      vertex 63.8428 4.70802 0
      vertex 78.2865 6.61832 0
      vertex 78.6183 6.28647 0
    endloop
  endfacet
  facet normal -0 0 -1
    outer loop
      vertex 79.0365 6.07341 0
      vertex 62.792 3.65717 0
      vertex 78.6183 6.28647 0
    endloop
  endfacet
  facet normal -0 0 -1
    outer loop
      vertex 78.0734 7.03647 0
      vertex 64.5175 6.03217 0
      vertex 64.75 7.5 0
    endloop
  endfacet
  facet normal 0 0 -1
    outer loop
      vertex 78.2865 6.61832 0
      vertex 63.8428 4.70802 0
      vertex 64.5175 6.03217 0
    endloop
  endfacet
  facet normal 0 0 -1
    outer loop
      vertex 78.6183 6.28647 0
      vertex 62.792 3.65717 0
      vertex 63.8428 4.70802 0
    endloop
  endfacet
  facet normal 0 0 -1
    outer loop
      vertex 85.5 0 0
      vertex 61.4678 2.98248 0
      vertex 62.792 3.65717 0
    endloop
  endfacet
  facet normal 0 0 -1
    outer loop
      vertex 85.5 0 0
      vertex 60 2.75 0
      vertex 61.4678 2.98248 0
    endloop
  endfacet
  facet normal 0 0 -1
    outer loop
      vertex 55.4825 6.03217 0
      vertex 31.75 7.5 0
      vertex 55.25 7.5 0
    endloop
  endfacet
  facet normal 0 0 -1
    outer loop
      vertex 31.5175 6.03217 0
      vertex 55.4825 6.03217 0
      vertex 56.1572 4.70802 0
    endloop
  endfacet
  facet normal 0 0 -1
    outer loop
      vertex 30.8428 4.70802 0
      vertex 56.1572 4.70802 0
      vertex 57.208 3.65717 0
    endloop
  endfacet
  facet normal 0 0 -1
    outer loop
      vertex 29.792 3.65717 0
      vertex 57.208 3.65717 0
      vertex 58.5322 2.98248 0
    endloop
  endfacet
  facet normal 0 0 -1
    outer loop
      vertex 55.4825 6.03217 0
      vertex 31.5175 6.03217 0
      vertex 31.75 7.5 0
    endloop
  endfacet
  facet normal 0 0 -1
    outer loop
      vertex 28.4678 2.98248 0
      vertex 58.5322 2.98248 0
      vertex 60 2.75 0
    endloop
  endfacet
  facet normal 0 0 -1
    outer loop
      vertex 56.1572 4.70802 0
      vertex 30.8428 4.70802 0
      vertex 31.5175 6.03217 0
    endloop
  endfacet
  facet normal 0 0 -1
    outer loop
      vertex 27 2.75 0
      vertex 60 2.75 0
      vertex 85.5 0 0
    endloop
  endfacet
  facet normal 0 0 -1
    outer loop
      vertex 57.208 3.65717 0
      vertex 29.792 3.65717 0
      vertex 30.8428 4.70802 0
    endloop
  endfacet
  facet normal 0 0 -1
    outer loop
      vertex 58.5322 2.98248 0
      vertex 28.4678 2.98248 0
      vertex 29.792 3.65717 0
    endloop
  endfacet
  facet normal 0 0 -1
    outer loop
      vertex 60 2.75 0
      vertex 27 2.75 0
      vertex 28.4678 2.98248 0
    endloop
  endfacet
  facet normal 0 0 -1
    outer loop
      vertex 7.42658 7.03647 0
      vertex 22.25 7.5 0
      vertex 22.4825 6.03217 0
    endloop
  endfacet
  facet normal 0 0 -1
    outer loop
      vertex 7.21352 6.61832 0
      vertex 22.4825 6.03217 0
      vertex 23.1572 4.70802 0
    endloop
  endfacet
  facet normal 0 0 -1
    outer loop
      vertex 6.88168 6.28647 0
      vertex 23.1572 4.70802 0
      vertex 24.208 3.65717 0
    endloop
  endfacet
  facet normal 0 0 -1
    outer loop
      vertex 0 0 0
      vertex 24.208 3.65717 0
      vertex 25.5322 2.98248 0
    endloop
  endfacet
  facet normal -0 0 -1
    outer loop
      vertex 22.25 7.5 0
      vertex 7.42658 7.03647 0
      vertex 7.5 7.5 0
    endloop
  endfacet
  facet normal 0 0 -1
    outer loop
      vertex 22.4825 6.03217 0
      vertex 7.21352 6.61832 0
      vertex 7.42658 7.03647 0
    endloop
  endfacet
  facet normal 0 0 -1
    outer loop
      vertex 23.1572 4.70802 0
      vertex 6.88168 6.28647 0
      vertex 7.21352 6.61832 0
    endloop
  endfacet
  facet normal 0 0 -1
    outer loop
      vertex 24.208 3.65717 0
      vertex 6.46352 6.07341 0
      vertex 6.88168 6.28647 0
    endloop
  endfacet
  facet normal -0 0 -1
    outer loop
      vertex 24.208 3.65717 0
      vertex 0 0 0
      vertex 6.46352 6.07341 0
    endloop
  endfacet
  facet normal 0 0 -1
    outer loop
      vertex 0 0 0
      vertex 25.5322 2.98248 0
      vertex 27 2.75 0
    endloop
  endfacet
  facet normal -0 0 -1
    outer loop
      vertex 4.57341 7.03647 0
      vertex 0 0 0
      vertex 4.5 7.5 0
    endloop
  endfacet
  facet normal -0 0 -1
    outer loop
      vertex 4.78647 6.61832 0
      vertex 0 0 0
      vertex 4.57341 7.03647 0
    endloop
  endfacet
  facet normal -0 0 -1
    outer loop
      vertex 5.11832 6.28647 0
      vertex 0 0 0
      vertex 4.78647 6.61832 0
    endloop
  endfacet
  facet normal -0 0 -1
    outer loop
      vertex 5.53647 6.07341 0
      vertex 0 0 0
      vertex 5.11832 6.28647 0
    endloop
  endfacet
  facet normal -0 0 -1
    outer loop
      vertex 6 6 0
      vertex 0 0 0
      vertex 5.53647 6.07341 0
    endloop
  endfacet
  facet normal 0 0 -1
    outer loop
      vertex 6.46352 6.07341 0
      vertex 0 0 0
      vertex 6 6 0
    endloop
  endfacet
  facet normal 0 0 -1
    outer loop
      vertex 0 0 0
      vertex 27 2.75 0
      vertex 85.5 0 0
    endloop
  endfacet
  facet normal 0 0 -1
    outer loop
      vertex 80.9266 7.96352 0
      vertex 85.5 15 0
      vertex 81 7.5 0
    endloop
  endfacet
  facet normal 0 0 -1
    outer loop
      vertex 80.7135 8.38168 0
      vertex 85.5 15 0
      vertex 80.9266 7.96352 0
    endloop
  endfacet
  facet normal 0 0 -1
    outer loop
      vertex 80.3817 8.71352 0
      vertex 85.5 15 0
      vertex 80.7135 8.38168 0
    endloop
  endfacet
  facet normal 0 0 -1
    outer loop
      vertex 79.9635 8.92658 0
      vertex 85.5 15 0
      vertex 80.3817 8.71352 0
    endloop
  endfacet
  facet normal 0 0 -1
    outer loop
      vertex 79.5 9 0
      vertex 85.5 15 0
      vertex 79.9635 8.92658 0
    endloop
  endfacet
  facet normal 0 0 -1
    outer loop
      vertex 79.0365 8.92658 0
      vertex 85.5 15 0
      vertex 79.5 9 0
    endloop
  endfacet
  facet normal 0 0 -1
    outer loop
      vertex 62.792 11.3428 0
      vertex 79.0365 8.92658 0
      vertex 78.6183 8.71352 0
    endloop
  endfacet
  facet normal 0 0 -1
    outer loop
      vertex 64.75 7.5 0
      vertex 78.0734 7.96352 0
      vertex 78 7.5 0
    endloop
  endfacet
  facet normal 0 0 -1
    outer loop
      vertex 64.5175 8.96783 0
      vertex 78.0734 7.96352 0
      vertex 64.75 7.5 0
    endloop
  endfacet
  facet normal 0 0 -1
    outer loop
      vertex 78.0734 7.96352 0
      vertex 64.5175 8.96783 0
      vertex 78.2865 8.38168 0
    endloop
  endfacet
  facet normal 0 0 -1
    outer loop
      vertex 63.8428 10.292 0
      vertex 78.2865 8.38168 0
      vertex 64.5175 8.96783 0
    endloop
  endfacet
  facet normal 0 0 -1
    outer loop
      vertex 78.2865 8.38168 0
      vertex 63.8428 10.292 0
      vertex 78.6183 8.71352 0
    endloop
  endfacet
  facet normal 0 0 -1
    outer loop
      vertex 62.792 11.3428 0
      vertex 78.6183 8.71352 0
      vertex 63.8428 10.292 0
    endloop
  endfacet
  facet normal 0 0 -1
    outer loop
      vertex 79.0365 8.92658 0
      vertex 62.792 11.3428 0
      vertex 85.5 15 0
    endloop
  endfacet
  facet normal 0 0 -1
    outer loop
      vertex 61.4678 12.0175 0
      vertex 85.5 15 0
      vertex 62.792 11.3428 0
    endloop
  endfacet
  facet normal 0 0 -1
    outer loop
      vertex 60 12.25 0
      vertex 85.5 15 0
      vertex 61.4678 12.0175 0
    endloop
  endfacet
  facet normal 0 0 -1
    outer loop
      vertex 31.75 7.5 0
      vertex 55.4825 8.96783 0
      vertex 55.25 7.5 0
    endloop
  endfacet
  facet normal 0 0 -1
    outer loop
      vertex 31.5175 8.96783 0
      vertex 55.4825 8.96783 0
      vertex 31.75 7.5 0
    endloop
  endfacet
  facet normal 0 0 -1
    outer loop
      vertex 55.4825 8.96783 0
      vertex 31.5175 8.96783 0
      vertex 56.1572 10.292 0
    endloop
  endfacet
  facet normal 0 0 -1
    outer loop
      vertex 30.8428 10.292 0
      vertex 56.1572 10.292 0
      vertex 31.5175 8.96783 0
    endloop
  endfacet
  facet normal 0 0 -1
    outer loop
      vertex 56.1572 10.292 0
      vertex 30.8428 10.292 0
      vertex 57.208 11.3428 0
    endloop
  endfacet
  facet normal 0 0 -1
    outer loop
      vertex 29.792 11.3428 0
      vertex 57.208 11.3428 0
      vertex 30.8428 10.292 0
    endloop
  endfacet
  facet normal 0 0 -1
    outer loop
      vertex 57.208 11.3428 0
      vertex 29.792 11.3428 0
      vertex 58.5322 12.0175 0
    endloop
  endfacet
  facet normal 0 0 -1
    outer loop
      vertex 28.4678 12.0175 0
      vertex 58.5322 12.0175 0
      vertex 29.792 11.3428 0
    endloop
  endfacet
  facet normal 0 0 -1
    outer loop
      vertex 58.5322 12.0175 0
      vertex 28.4678 12.0175 0
      vertex 60 12.25 0
    endloop
  endfacet
  facet normal 0 0 -1
    outer loop
      vertex 27 12.25 0
      vertex 60 12.25 0
      vertex 28.4678 12.0175 0
    endloop
  endfacet
  facet normal 0 0 -1
    outer loop
      vertex 60 12.25 0
      vertex 27 12.25 0
      vertex 85.5 15 0
    endloop
  endfacet
  facet normal 0 0 -1
    outer loop
      vertex 7.42658 7.96352 0
      vertex 22.25 7.5 0
      vertex 7.5 7.5 0
    endloop
  endfacet
  facet normal 0 0 -1
    outer loop
      vertex 22.25 7.5 0
      vertex 7.42658 7.96352 0
      vertex 22.4825 8.96783 0
    endloop
  endfacet
  facet normal 0 0 -1
    outer loop
      vertex 7.21352 8.38168 0
      vertex 22.4825 8.96783 0
      vertex 7.42658 7.96352 0
    endloop
  endfacet
  facet normal -0 0 -1
    outer loop
      vertex 22.4825 8.96783 0
      vertex 7.21352 8.38168 0
      vertex 23.1572 10.292 0
    endloop
  endfacet
  facet normal 0 0 -1
    outer loop
      vertex 6.88168 8.71352 0
      vertex 23.1572 10.292 0
      vertex 7.21352 8.38168 0
    endloop
  endfacet
  facet normal -0 0 -1
    outer loop
      vertex 23.1572 10.292 0
      vertex 6.88168 8.71352 0
      vertex 24.208 11.3428 0
    endloop
  endfacet
  facet normal 0 0 -1
    outer loop
      vertex 6.46352 8.92658 0
      vertex 24.208 11.3428 0
      vertex 6.88168 8.71352 0
    endloop
  endfacet
  facet normal 0 0 -1
    outer loop
      vertex 0 15 0
      vertex 24.208 11.3428 0
      vertex 6.46352 8.92658 0
    endloop
  endfacet
  facet normal 0 0 -1
    outer loop
      vertex 0 15 0
      vertex 6.46352 8.92658 0
      vertex 6 9 0
    endloop
  endfacet
  facet normal 0 0 -1
    outer loop
      vertex 24.208 11.3428 0
      vertex 0 15 0
      vertex 25.5322 12.0175 0
    endloop
  endfacet
  facet normal 0 0 -1
    outer loop
      vertex 0 15 0
      vertex 4.5 7.5 0
      vertex 0 0 0
    endloop
  endfacet
  facet normal 0 0 -1
    outer loop
      vertex 4.5 7.5 0
      vertex 0 15 0
      vertex 4.57341 7.96352 0
    endloop
  endfacet
  facet normal 0 0 -1
    outer loop
      vertex 27 12.25 0
      vertex 0 15 0
      vertex 85.5 15 0
    endloop
  endfacet
  facet normal 0 0 -1
    outer loop
      vertex 25.5322 12.0175 0
      vertex 0 15 0
      vertex 27 12.25 0
    endloop
  endfacet
  facet normal 0 0 -1
    outer loop
      vertex 5.53647 8.92658 0
      vertex 0 15 0
      vertex 6 9 0
    endloop
  endfacet
  facet normal 0 0 -1
    outer loop
      vertex 5.11832 8.71352 0
      vertex 0 15 0
      vertex 5.53647 8.92658 0
    endloop
  endfacet
  facet normal 0 0 -1
    outer loop
      vertex 4.78647 8.38168 0
      vertex 0 15 0
      vertex 5.11832 8.71352 0
    endloop
  endfacet
  facet normal 0 0 -1
    outer loop
      vertex 4.57341 7.96352 0
      vertex 0 15 0
      vertex 4.78647 8.38168 0
    endloop
  endfacet
  facet normal 0 -1 0
    outer loop
      vertex 27.4635 0 4.42658
      vertex 60 0 4.5
      vertex 27 0 4.5
    endloop
  endfacet
  facet normal 0 -1 0
    outer loop
      vertex 27.4635 0 4.42658
      vertex 59.5365 0 4.42658
      vertex 60 0 4.5
    endloop
  endfacet
  facet normal 0 -1 0
    outer loop
      vertex 27.8817 0 4.21352
      vertex 59.5365 0 4.42658
      vertex 27.4635 0 4.42658
    endloop
  endfacet
  facet normal 0 -1 0
    outer loop
      vertex 27.8817 0 4.21352
      vertex 59.1183 0 4.21352
      vertex 59.5365 0 4.42658
    endloop
  endfacet
  facet normal 0 -1 0
    outer loop
      vertex 28.2135 0 3.88168
      vertex 59.1183 0 4.21352
      vertex 27.8817 0 4.21352
    endloop
  endfacet
  facet normal 0 -1 0
    outer loop
      vertex 28.2135 0 3.88168
      vertex 58.7865 0 3.88168
      vertex 59.1183 0 4.21352
    endloop
  endfacet
  facet normal 0 -1 0
    outer loop
      vertex 28.4266 0 3.46352
      vertex 58.7865 0 3.88168
      vertex 28.2135 0 3.88168
    endloop
  endfacet
  facet normal 0 -1 0
    outer loop
      vertex 28.4266 0 3.46352
      vertex 58.5734 0 3.46352
      vertex 58.7865 0 3.88168
    endloop
  endfacet
  facet normal 0 -1 0
    outer loop
      vertex 28.5 0 3
      vertex 58.5734 0 3.46352
      vertex 28.4266 0 3.46352
    endloop
  endfacet
  facet normal 0 -1 0
    outer loop
      vertex 28.5 0 3
      vertex 58.5 0 3
      vertex 58.5734 0 3.46352
    endloop
  endfacet
  facet normal 0 -1 0
    outer loop
      vertex 28.4266 0 2.53647
      vertex 58.5 0 3
      vertex 28.5 0 3
    endloop
  endfacet
  facet normal 0 -1 0
    outer loop
      vertex 28.4266 0 2.53647
      vertex 58.5734 0 2.53647
      vertex 58.5 0 3
    endloop
  endfacet
  facet normal 0 -1 0
    outer loop
      vertex 28.2135 0 2.11832
      vertex 58.5734 0 2.53647
      vertex 28.4266 0 2.53647
    endloop
  endfacet
  facet normal 0 -1 0
    outer loop
      vertex 28.2135 0 2.11832
      vertex 58.7865 0 2.11832
      vertex 58.5734 0 2.53647
    endloop
  endfacet
  facet normal 0 -1 0
    outer loop
      vertex 27.8817 0 1.78647
      vertex 58.7865 0 2.11832
      vertex 28.2135 0 2.11832
    endloop
  endfacet
  facet normal 0 -1 0
    outer loop
      vertex 27.8817 0 1.78647
      vertex 59.1183 0 1.78647
      vertex 58.7865 0 2.11832
    endloop
  endfacet
  facet normal 0 -1 0
    outer loop
      vertex 27.4635 0 1.57341
      vertex 59.1183 0 1.78647
      vertex 27.8817 0 1.78647
    endloop
  endfacet
  facet normal 0 -1 0
    outer loop
      vertex 27.4635 0 1.57341
      vertex 59.5365 0 1.57341
      vertex 59.1183 0 1.78647
    endloop
  endfacet
  facet normal 0 -1 0
    outer loop
      vertex 27 0 1.5
      vertex 59.5365 0 1.57341
      vertex 27.4635 0 1.57341
    endloop
  endfacet
  facet normal 0 -1 -0
    outer loop
      vertex 59.5365 0 1.57341
      vertex 27 0 1.5
      vertex 60 0 1.5
    endloop
  endfacet
  facet normal 0 -1 0
    outer loop
      vertex 0 0 6
      vertex 27 0 4.5
      vertex 81 0 6
    endloop
  endfacet
  facet normal 0 -1 0
    outer loop
      vertex 0 0 6
      vertex 26.5365 0 4.42658
      vertex 27 0 4.5
    endloop
  endfacet
  facet normal 0 -1 0
    outer loop
      vertex 0 0 6
      vertex 26.1183 0 4.21352
      vertex 26.5365 0 4.42658
    endloop
  endfacet
  facet normal 0 -1 0
    outer loop
      vertex 0 0 6
      vertex 25.7865 0 3.88168
      vertex 26.1183 0 4.21352
    endloop
  endfacet
  facet normal 0 -1 0
    outer loop
      vertex 0 0 6
      vertex 25.5734 0 3.46352
      vertex 25.7865 0 3.88168
    endloop
  endfacet
  facet normal 0 -1 0
    outer loop
      vertex 0 0 6
      vertex 25.5 0 3
      vertex 25.5734 0 3.46352
    endloop
  endfacet
  facet normal 0 -1 0
    outer loop
      vertex 0 0 0
      vertex 25.5 0 3
      vertex 0 0 6
    endloop
  endfacet
  facet normal 0 -1 -0
    outer loop
      vertex 25.5 0 3
      vertex 0 0 0
      vertex 25.5734 0 2.53647
    endloop
  endfacet
  facet normal 0 -1 -0
    outer loop
      vertex 25.5734 0 2.53647
      vertex 0 0 0
      vertex 25.7865 0 2.11832
    endloop
  endfacet
  facet normal 0 -1 -0
    outer loop
      vertex 25.7865 0 2.11832
      vertex 0 0 0
      vertex 26.1183 0 1.78647
    endloop
  endfacet
  facet normal 0 -1 -0
    outer loop
      vertex 27 0 1.5
      vertex 0 0 0
      vertex 60 0 1.5
    endloop
  endfacet
  facet normal 0 -1 -0
    outer loop
      vertex 26.5365 0 1.57341
      vertex 0 0 0
      vertex 27 0 1.5
    endloop
  endfacet
  facet normal 0 -1 -0
    outer loop
      vertex 26.1183 0 1.78647
      vertex 0 0 0
      vertex 26.5365 0 1.57341
    endloop
  endfacet
  facet normal 0 -1 0
    outer loop
      vertex 81 0 6
      vertex 85.5 0 31
      vertex 81 0 31
    endloop
  endfacet
  facet normal 0 -1 0
    outer loop
      vertex 60 0 4.5
      vertex 81 0 6
      vertex 27 0 4.5
    endloop
  endfacet
  facet normal 0 -1 0
    outer loop
      vertex 60.4635 0 4.42658
      vertex 81 0 6
      vertex 60 0 4.5
    endloop
  endfacet
  facet normal 0 -1 0
    outer loop
      vertex 60.8817 0 4.21352
      vertex 81 0 6
      vertex 60.4635 0 4.42658
    endloop
  endfacet
  facet normal 0 -1 0
    outer loop
      vertex 61.2135 0 3.88168
      vertex 81 0 6
      vertex 60.8817 0 4.21352
    endloop
  endfacet
  facet normal 0 -1 0
    outer loop
      vertex 61.4266 0 3.46352
      vertex 81 0 6
      vertex 61.2135 0 3.88168
    endloop
  endfacet
  facet normal 0 -1 0
    outer loop
      vertex 61.5 0 3
      vertex 81 0 6
      vertex 61.4266 0 3.46352
    endloop
  endfacet
  facet normal 0 -1 0
    outer loop
      vertex 61.4266 0 2.53647
      vertex 81 0 6
      vertex 61.5 0 3
    endloop
  endfacet
  facet normal 0 -1 0
    outer loop
      vertex 61.2135 0 2.11832
      vertex 81 0 6
      vertex 61.4266 0 2.53647
    endloop
  endfacet
  facet normal 0 -1 0
    outer loop
      vertex 85.5 0 0
      vertex 61.2135 0 2.11832
      vertex 60.8817 0 1.78647
    endloop
  endfacet
  facet normal 0 -1 0
    outer loop
      vertex 85.5 0 0
      vertex 60.8817 0 1.78647
      vertex 60.4635 0 1.57341
    endloop
  endfacet
  facet normal 0 -1 0
    outer loop
      vertex 81 0 6
      vertex 85.5 0 0
      vertex 85.5 0 31
    endloop
  endfacet
  facet normal 0 -1 0
    outer loop
      vertex 61.2135 0 2.11832
      vertex 85.5 0 0
      vertex 81 0 6
    endloop
  endfacet
  facet normal 0 -1 0
    outer loop
      vertex 60 0 1.5
      vertex 85.5 0 0
      vertex 60.4635 0 1.57341
    endloop
  endfacet
  facet normal 0 -1 0
    outer loop
      vertex 85.5 0 0
      vertex 60 0 1.5
      vertex 0 0 0
    endloop
  endfacet
  facet normal 0 1 -0
    outer loop
      vertex 85.5 15 0
      vertex 81 15 6
      vertex 85.5 15 6
    endloop
  endfacet
  facet normal 0 1 0
    outer loop
      vertex 0 15 0
      vertex 81 15 6
      vertex 85.5 15 0
    endloop
  endfacet
  facet normal 0 1 0
    outer loop
      vertex 81 15 6
      vertex 0 15 0
      vertex 0 15 6
    endloop
  endfacet
  facet normal -0.987688 0 -0.156436
    outer loop
      vertex 28.5 0 3
      vertex 28.4678 2.98248 3.20311
      vertex 28.5 2.99887 3
    endloop
  endfacet
  facet normal -0.987688 -5.8708e-09 -0.156436
    outer loop
      vertex 28.4266 0 3.46352
      vertex 28.4678 2.98248 3.20311
      vertex 28.5 0 3
    endloop
  endfacet
  facet normal -0.987688 0 -0.156436
    outer loop
      vertex 28.4678 2.98248 3.20311
      vertex 28.4266 0 3.46352
      vertex 28.4266 2.97595 3.46352
    endloop
  endfacet
  facet normal -0.891006 0 -0.453992
    outer loop
      vertex 28.4266 0 3.46352
      vertex 28.2135 2.9422 3.88168
      vertex 28.4266 2.97595 3.46352
    endloop
  endfacet
  facet normal -0.891006 -0 -0.453992
    outer loop
      vertex 28.2135 2.9422 3.88168
      vertex 28.4266 0 3.46352
      vertex 28.2135 0 3.88168
    endloop
  endfacet
  facet normal 0.891006 -0 0.453992
    outer loop
      vertex 25.5734 0 2.53647
      vertex 25.7865 2.9422 2.11832
      vertex 25.5734 2.97595 2.53647
    endloop
  endfacet
  facet normal 0.891006 0 0.453992
    outer loop
      vertex 25.7865 2.9422 2.11832
      vertex 25.5734 0 2.53647
      vertex 25.7865 0 2.11832
    endloop
  endfacet
  facet normal 0.156435 0 -0.987688
    outer loop
      vertex 26.5365 0 4.42658
      vertex 27 2.75 4.5
      vertex 27 0 4.5
    endloop
  endfacet
  facet normal 0.156435 0 -0.987688
    outer loop
      vertex 27 2.75 4.5
      vertex 26.5365 0 4.42658
      vertex 26.5365 2.82342 4.42658
    endloop
  endfacet
  facet normal 0.707108 0 -0.707106
    outer loop
      vertex 25.7865 0 3.88168
      vertex 26.1183 2.88964 4.21352
      vertex 26.1183 0 4.21352
    endloop
  endfacet
  facet normal 0.707108 0 -0.707106
    outer loop
      vertex 26.1183 2.88964 4.21352
      vertex 25.7865 0 3.88168
      vertex 25.7865 2.9422 3.88168
    endloop
  endfacet
  facet normal -0.707108 0 -0.707106
    outer loop
      vertex 28.2135 0 3.88168
      vertex 27.8817 2.88964 4.21352
      vertex 28.2135 2.9422 3.88168
    endloop
  endfacet
  facet normal -0.707108 -0 -0.707106
    outer loop
      vertex 27.8817 2.88964 4.21352
      vertex 28.2135 0 3.88168
      vertex 27.8817 0 4.21352
    endloop
  endfacet
  facet normal 0.45399 0 -0.891007
    outer loop
      vertex 26.1183 0 4.21352
      vertex 26.5365 2.82342 4.42658
      vertex 26.5365 0 4.42658
    endloop
  endfacet
  facet normal 0.45399 0 -0.891007
    outer loop
      vertex 26.5365 2.82342 4.42658
      vertex 26.1183 0 4.21352
      vertex 26.1183 2.88964 4.21352
    endloop
  endfacet
  facet normal -0.45399 0 0.891007
    outer loop
      vertex 27.4635 2.82342 1.57341
      vertex 27.8817 0 1.78647
      vertex 27.8817 2.88964 1.78647
    endloop
  endfacet
  facet normal -0.45399 0 0.891007
    outer loop
      vertex 27.8817 0 1.78647
      vertex 27.4635 2.82342 1.57341
      vertex 27.4635 0 1.57341
    endloop
  endfacet
  facet normal -0.45399 -0 -0.891007
    outer loop
      vertex 27.4635 2.82342 4.42658
      vertex 27.8817 0 4.21352
      vertex 27.4635 0 4.42658
    endloop
  endfacet
  facet normal -0.45399 0 -0.891007
    outer loop
      vertex 27.8817 0 4.21352
      vertex 27.4635 2.82342 4.42658
      vertex 27.8817 2.88964 4.21352
    endloop
  endfacet
  facet normal -0.156436 -0 -0.987688
    outer loop
      vertex 27 2.75 4.5
      vertex 27.4635 0 4.42658
      vertex 27 0 4.5
    endloop
  endfacet
  facet normal -0.156436 0 -0.987688
    outer loop
      vertex 27.4635 0 4.42658
      vertex 27 2.75 4.5
      vertex 27.4635 2.82342 4.42658
    endloop
  endfacet
  facet normal 0.891006 0 -0.453992
    outer loop
      vertex 25.5734 0 3.46352
      vertex 25.7865 2.9422 3.88168
      vertex 25.7865 0 3.88168
    endloop
  endfacet
  facet normal 0.891006 0 -0.453992
    outer loop
      vertex 25.7865 2.9422 3.88168
      vertex 25.5734 0 3.46352
      vertex 25.5734 2.97595 3.46352
    endloop
  endfacet
  facet normal -0.707108 0 0.707106
    outer loop
      vertex 28.2135 0 2.11832
      vertex 27.8817 2.88964 1.78647
      vertex 27.8817 0 1.78647
    endloop
  endfacet
  facet normal -0.707108 0 0.707106
    outer loop
      vertex 27.8817 2.88964 1.78647
      vertex 28.2135 0 2.11832
      vertex 28.2135 2.9422 2.11832
    endloop
  endfacet
  facet normal 0.45399 -0 0.891007
    outer loop
      vertex 26.1183 0 1.78647
      vertex 26.5365 2.82342 1.57341
      vertex 26.1183 2.88964 1.78647
    endloop
  endfacet
  facet normal 0.45399 0 0.891007
    outer loop
      vertex 26.5365 2.82342 1.57341
      vertex 26.1183 0 1.78647
      vertex 26.5365 0 1.57341
    endloop
  endfacet
  facet normal 0.98769 0 -0.156427
    outer loop
      vertex 25.5734 0 3.46352
      vertex 25.5322 2.98248 3.2031
      vertex 25.5734 2.97595 3.46352
    endloop
  endfacet
  facet normal 0.987689 -4.57716e-07 -0.156432
    outer loop
      vertex 25.5 0 3
      vertex 25.5322 2.98248 3.2031
      vertex 25.5734 0 3.46352
    endloop
  endfacet
  facet normal 0.987688 0 -0.156438
    outer loop
      vertex 25.5322 2.98248 3.2031
      vertex 25.5 0 3
      vertex 25.5 2.99887 3
    endloop
  endfacet
  facet normal 0.987688 -0 0.156438
    outer loop
      vertex 25.5 0 3
      vertex 25.5322 2.98248 2.7969
      vertex 25.5 2.99887 3
    endloop
  endfacet
  facet normal 0.987689 -4.54624e-07 0.156432
    outer loop
      vertex 25.5734 0 2.53647
      vertex 25.5322 2.98248 2.7969
      vertex 25.5 0 3
    endloop
  endfacet
  facet normal 0.98769 0 0.156426
    outer loop
      vertex 25.5322 2.98248 2.7969
      vertex 25.5734 0 2.53647
      vertex 25.5734 2.97595 2.53647
    endloop
  endfacet
  facet normal -0.891006 0 0.453992
    outer loop
      vertex 28.4266 0 2.53647
      vertex 28.2135 2.9422 2.11832
      vertex 28.2135 0 2.11832
    endloop
  endfacet
  facet normal -0.891006 0 0.453992
    outer loop
      vertex 28.2135 2.9422 2.11832
      vertex 28.4266 0 2.53647
      vertex 28.4266 2.97595 2.53647
    endloop
  endfacet
  facet normal -0.987688 0 0.156435
    outer loop
      vertex 28.4266 0 2.53647
      vertex 28.4678 2.98248 2.79689
      vertex 28.4266 2.97595 2.53647
    endloop
  endfacet
  facet normal -0.987688 -2.77847e-09 0.156435
    outer loop
      vertex 28.5 0 3
      vertex 28.4678 2.98248 2.79689
      vertex 28.4266 0 2.53647
    endloop
  endfacet
  facet normal -0.987688 0 0.156436
    outer loop
      vertex 28.4678 2.98248 2.79689
      vertex 28.5 0 3
      vertex 28.5 2.99887 3
    endloop
  endfacet
  facet normal 0.156433 -0 0.987688
    outer loop
      vertex 26.5365 0 1.57341
      vertex 27 2.75 1.5
      vertex 26.5365 2.82342 1.57341
    endloop
  endfacet
  facet normal 0.156433 0 0.987688
    outer loop
      vertex 27 2.75 1.5
      vertex 26.5365 0 1.57341
      vertex 27 0 1.5
    endloop
  endfacet
  facet normal -0.156434 0 0.987688
    outer loop
      vertex 27 2.75 1.5
      vertex 27.4635 0 1.57341
      vertex 27.4635 2.82342 1.57341
    endloop
  endfacet
  facet normal -0.156434 0 0.987688
    outer loop
      vertex 27.4635 0 1.57341
      vertex 27 2.75 1.5
      vertex 27 0 1.5
    endloop
  endfacet
  facet normal 0.707108 -0 0.707106
    outer loop
      vertex 25.7865 0 2.11832
      vertex 26.1183 2.88964 1.78647
      vertex 25.7865 2.9422 2.11832
    endloop
  endfacet
  facet normal 0.707108 0 0.707106
    outer loop
      vertex 26.1183 2.88964 1.78647
      vertex 25.7865 0 2.11832
      vertex 26.1183 0 1.78647
    endloop
  endfacet
  facet normal -0.987688 0 -0.156436
    outer loop
      vertex 61.5 0 3
      vertex 61.4678 2.98248 3.20311
      vertex 61.5 2.99887 3
    endloop
  endfacet
  facet normal -0.987688 2.70903e-07 -0.15644
    outer loop
      vertex 61.4266 0 3.46352
      vertex 61.4678 2.98248 3.20311
      vertex 61.5 0 3
    endloop
  endfacet
  facet normal -0.987687 0 -0.156443
    outer loop
      vertex 61.4678 2.98248 3.20311
      vertex 61.4266 0 3.46352
      vertex 61.4266 2.97595 3.46352
    endloop
  endfacet
  facet normal -0.707106 -0 -0.707108
    outer loop
      vertex 60.8817 2.88964 4.21352
      vertex 61.2135 0 3.88168
      vertex 60.8817 0 4.21352
    endloop
  endfacet
  facet normal -0.707106 0 -0.707108
    outer loop
      vertex 61.2135 0 3.88168
      vertex 60.8817 2.88964 4.21352
      vertex 61.2135 2.9422 3.88168
    endloop
  endfacet
  facet normal 0.156436 0 -0.987688
    outer loop
      vertex 59.5365 0 4.42658
      vertex 60 2.75 4.5
      vertex 60 0 4.5
    endloop
  endfacet
  facet normal 0.156436 0 -0.987688
    outer loop
      vertex 60 2.75 4.5
      vertex 59.5365 0 4.42658
      vertex 59.5365 2.82342 4.42658
    endloop
  endfacet
  facet normal -0.453991 -0 -0.891006
    outer loop
      vertex 60.4635 2.82342 4.42658
      vertex 60.8817 0 4.21352
      vertex 60.4635 0 4.42658
    endloop
  endfacet
  facet normal -0.453991 0 -0.891006
    outer loop
      vertex 60.8817 0 4.21352
      vertex 60.4635 2.82342 4.42658
      vertex 60.8817 2.88964 4.21352
    endloop
  endfacet
  facet normal -0.891007 0 0.453989
    outer loop
      vertex 61.4266 0 2.53647
      vertex 61.2135 2.9422 2.11832
      vertex 61.2135 0 2.11832
    endloop
  endfacet
  facet normal -0.891007 0 0.453989
    outer loop
      vertex 61.2135 2.9422 2.11832
      vertex 61.4266 0 2.53647
      vertex 61.4266 2.97595 2.53647
    endloop
  endfacet
  facet normal -0.707106 0 0.707108
    outer loop
      vertex 60.8817 2.88964 1.78647
      vertex 61.2135 0 2.11832
      vertex 61.2135 2.9422 2.11832
    endloop
  endfacet
  facet normal -0.707106 0 0.707108
    outer loop
      vertex 61.2135 0 2.11832
      vertex 60.8817 2.88964 1.78647
      vertex 60.8817 0 1.78647
    endloop
  endfacet
  facet normal 0.156434 -0 0.987688
    outer loop
      vertex 59.5365 0 1.57341
      vertex 60 2.75 1.5
      vertex 59.5365 2.82342 1.57341
    endloop
  endfacet
  facet normal 0.156434 0 0.987688
    outer loop
      vertex 60 2.75 1.5
      vertex 59.5365 0 1.57341
      vertex 60 0 1.5
    endloop
  endfacet
  facet normal -0.891007 0 -0.453989
    outer loop
      vertex 61.4266 0 3.46352
      vertex 61.2135 2.9422 3.88168
      vertex 61.4266 2.97595 3.46352
    endloop
  endfacet
  facet normal -0.891007 -0 -0.453989
    outer loop
      vertex 61.2135 2.9422 3.88168
      vertex 61.4266 0 3.46352
      vertex 61.2135 0 3.88168
    endloop
  endfacet
  facet normal -0.156436 -0 -0.987688
    outer loop
      vertex 60 2.75 4.5
      vertex 60.4635 0 4.42658
      vertex 60 0 4.5
    endloop
  endfacet
  facet normal -0.156436 0 -0.987688
    outer loop
      vertex 60.4635 0 4.42658
      vertex 60 2.75 4.5
      vertex 60.4635 2.82342 4.42658
    endloop
  endfacet
  facet normal 0.987688 -0 0.156438
    outer loop
      vertex 58.5 0 3
      vertex 58.5322 2.98248 2.7969
      vertex 58.5 2.99887 3
    endloop
  endfacet
  facet normal 0.987689 -4.54624e-07 0.156432
    outer loop
      vertex 58.5734 0 2.53647
      vertex 58.5322 2.98248 2.7969
      vertex 58.5 0 3
    endloop
  endfacet
  facet normal 0.98769 0 0.156426
    outer loop
      vertex 58.5322 2.98248 2.7969
      vertex 58.5734 0 2.53647
      vertex 58.5734 2.97595 2.53647
    endloop
  endfacet
  facet normal 0.891004 0 -0.453995
    outer loop
      vertex 58.5734 0 3.46352
      vertex 58.7865 2.9422 3.88168
      vertex 58.7865 0 3.88168
    endloop
  endfacet
  facet normal 0.891004 0 -0.453995
    outer loop
      vertex 58.7865 2.9422 3.88168
      vertex 58.5734 0 3.46352
      vertex 58.5734 2.97595 3.46352
    endloop
  endfacet
  facet normal 0.453988 0 -0.891008
    outer loop
      vertex 59.1183 0 4.21352
      vertex 59.5365 2.82342 4.42658
      vertex 59.5365 0 4.42658
    endloop
  endfacet
  facet normal 0.453988 0 -0.891008
    outer loop
      vertex 59.5365 2.82342 4.42658
      vertex 59.1183 0 4.21352
      vertex 59.1183 2.88964 4.21352
    endloop
  endfacet
  facet normal 0.70711 0 -0.707104
    outer loop
      vertex 58.7865 0 3.88168
      vertex 59.1183 2.88964 4.21352
      vertex 59.1183 0 4.21352
    endloop
  endfacet
  facet normal 0.70711 0 -0.707104
    outer loop
      vertex 59.1183 2.88964 4.21352
      vertex 58.7865 0 3.88168
      vertex 58.7865 2.9422 3.88168
    endloop
  endfacet
  facet normal -0.453991 0 0.891006
    outer loop
      vertex 60.4635 2.82342 1.57341
      vertex 60.8817 0 1.78647
      vertex 60.8817 2.88964 1.78647
    endloop
  endfacet
  facet normal -0.453991 0 0.891006
    outer loop
      vertex 60.8817 0 1.78647
      vertex 60.4635 2.82342 1.57341
      vertex 60.4635 0 1.57341
    endloop
  endfacet
  facet normal 0.891004 -0 0.453995
    outer loop
      vertex 58.5734 0 2.53647
      vertex 58.7865 2.9422 2.11832
      vertex 58.5734 2.97595 2.53647
    endloop
  endfacet
  facet normal 0.891004 0 0.453995
    outer loop
      vertex 58.7865 2.9422 2.11832
      vertex 58.5734 0 2.53647
      vertex 58.7865 0 2.11832
    endloop
  endfacet
  facet normal 0.98769 0 -0.156427
    outer loop
      vertex 58.5734 0 3.46352
      vertex 58.5322 2.98248 3.2031
      vertex 58.5734 2.97595 3.46352
    endloop
  endfacet
  facet normal 0.987689 -4.57716e-07 -0.156432
    outer loop
      vertex 58.5 0 3
      vertex 58.5322 2.98248 3.2031
      vertex 58.5734 0 3.46352
    endloop
  endfacet
  facet normal 0.987688 0 -0.156438
    outer loop
      vertex 58.5322 2.98248 3.2031
      vertex 58.5 0 3
      vertex 58.5 2.99887 3
    endloop
  endfacet
  facet normal -0.987687 0 0.156443
    outer loop
      vertex 61.4266 0 2.53647
      vertex 61.4678 2.98248 2.79689
      vertex 61.4266 2.97595 2.53647
    endloop
  endfacet
  facet normal -0.987688 2.73995e-07 0.156439
    outer loop
      vertex 61.5 0 3
      vertex 61.4678 2.98248 2.79689
      vertex 61.4266 0 2.53647
    endloop
  endfacet
  facet normal -0.987688 0 0.156436
    outer loop
      vertex 61.4678 2.98248 2.79689
      vertex 61.5 0 3
      vertex 61.5 2.99887 3
    endloop
  endfacet
  facet normal -0.156434 0 0.987688
    outer loop
      vertex 60 2.75 1.5
      vertex 60.4635 0 1.57341
      vertex 60.4635 2.82342 1.57341
    endloop
  endfacet
  facet normal -0.156434 0 0.987688
    outer loop
      vertex 60.4635 0 1.57341
      vertex 60 2.75 1.5
      vertex 60 0 1.5
    endloop
  endfacet
  facet normal 0.70711 -0 0.707104
    outer loop
      vertex 58.7865 0 2.11832
      vertex 59.1183 2.88964 1.78647
      vertex 58.7865 2.9422 2.11832
    endloop
  endfacet
  facet normal 0.70711 0 0.707104
    outer loop
      vertex 59.1183 2.88964 1.78647
      vertex 58.7865 0 2.11832
      vertex 59.1183 0 1.78647
    endloop
  endfacet
  facet normal 0.453988 -0 0.891008
    outer loop
      vertex 59.1183 0 1.78647
      vertex 59.5365 2.82342 1.57341
      vertex 59.1183 2.88964 1.78647
    endloop
  endfacet
  facet normal 0.453988 0 0.891008
    outer loop
      vertex 59.5365 2.82342 1.57341
      vertex 59.1183 0 1.78647
      vertex 59.5365 0 1.57341
    endloop
  endfacet
  facet normal 0 1 -0
    outer loop
      vertex 85.5 35 26
      vertex 81 35 31
      vertex 85.5 35 31
    endloop
  endfacet
  facet normal 0 1 0
    outer loop
      vertex 81 35 31
      vertex 85.5 35 26
      vertex 81 35 26
    endloop
  endfacet
  facet normal -1 0 0
    outer loop
      vertex 81 0 31
      vertex 81 35 26
      vertex 81 15 6
    endloop
  endfacet
  facet normal -1 0 0
    outer loop
      vertex 81 0 31
      vertex 81 15 6
      vertex 81 7.5 6
    endloop
  endfacet
  facet normal -1 0 0
    outer loop
      vertex 81 0 31
      vertex 81 7.5 6
      vertex 81 0 6
    endloop
  endfacet
  facet normal -1 0 0
    outer loop
      vertex 81 35 26
      vertex 81 0 31
      vertex 81 35 31
    endloop
  endfacet
  facet normal -0 0 1
    outer loop
      vertex 81 35 31
      vertex 85.5 0 31
      vertex 85.5 35 31
    endloop
  endfacet
  facet normal 0 0 1
    outer loop
      vertex 85.5 0 31
      vertex 81 35 31
      vertex 81 0 31
    endloop
  endfacet
  facet normal 0 0.707107 -0.707107
    outer loop
      vertex 85.5 15 6
      vertex 81 35 26
      vertex 85.5 35 26
    endloop
  endfacet
  facet normal 0 0.707107 -0.707107
    outer loop
      vertex 81 35 26
      vertex 85.5 15 6
      vertex 81 15 6
    endloop
  endfacet
endsolid OpenSCAD_Model
