<?xml version="1.0" encoding="UTF-8" standalone="no"?>
<svg
   xmlns:svg="http://www.w3.org/2000/svg"
   xmlns="http://www.w3.org/2000/svg"
   version="1.1"
   width="321.15088"
   height="197.93755"
   viewbox="0, 0, 321.15088, 197.93755"
   id="svg2"
   xml:space="preserve"><defs
     id="defs6"><clipPath
       id="clipPath22"><path
         d="m 0,595.276 841.89,0 L 841.89,0 0,0 0,595.276 z"
         id="path24" /></clipPath></defs><g
     transform="matrix(1.25,0,0,-1.25,-365.60525,471.01667)"
     id="g12"><g
       id="g3212"><path
         d="m 465.832,238.6133 c -0.005,0 -0.103,-0.035 -0.231,-0.035 -0.387,0 -0.7,0.266 -0.93,0.789 -0.683,1.561 -1.165,3.706 -1.165,4.041 l -0.004,1.848 c -0.034,0.27 -0.212,1.654 -0.317,1.976 -0.122,0.361 -1.094,1.6 -1.589,1.745 -0.022,0.043 -0.052,0.224 -0.079,0.397 l -0.015,0.094 c -0.048,0.284 -0.17,0.744 -0.311,1.278 -0.099,0.373 -0.203,0.77 -0.283,1.112 l -3.14,0 c 0.021,-0.062 0.037,-0.121 0.062,-0.192 0.853,-2.37 0.574,-2.98 0.014,-4.194 -0.627,-1.356 -1.735,-5.18 -1.638,-7.672 0.005,-0.063 -0.003,-0.122 -0.003,-0.181 0.041,-2.233 -0.908,-4.213 -1.731,-5.494 -0.041,-0.068 -0.057,-0.138 -0.057,-0.209 -0.005,-0.003 -0.005,-0.003 -0.009,-0.007 l 0.009,0.004 c -0.005,-0.111 0.035,-0.217 0.117,-0.295 0.142,-0.134 0.355,-0.15 0.512,-0.036 l 1.445,1.069 c 0.075,0.04 0.741,0.413 1.141,1.631 0.276,0.853 0.404,1.702 0.491,2.366 0.09,-0.145 0.187,-0.309 0.272,-0.475 0.054,-0.279 0.106,-0.649 0.128,-1.018 0.005,-0.074 0.008,-0.146 0.012,-0.221 l 0,-0.149 c 0.003,-0.078 0,-0.156 -0.001,-0.235 -0.003,-0.055 -0.005,-0.107 -0.011,-0.162 -0.002,-0.046 -0.01,-0.089 -0.015,-0.137 -0.02,-0.146 -0.051,-0.279 -0.094,-0.377 -0.108,-0.233 -0.201,-0.382 -0.278,-0.511 -0.221,-0.365 -0.356,-0.613 -0.425,-1.419 -0.038,-0.413 -0.244,-0.803 -0.444,-1.18 -0.221,-0.416 -0.447,-0.847 -0.457,-1.316 l 0,-0.016 c -10e-4,-0.141 0.012,-0.287 0.057,-0.436 0.028,-0.094 0.045,-0.177 0.054,-0.255 0.014,-0.075 0.015,-0.146 0.015,-0.213 0,-0.015 -0.001,-0.027 -0.001,-0.042 -0.006,-0.123 -0.023,-0.236 -0.046,-0.37 -0.034,-0.178 -0.063,-0.386 -0.071,-0.645 -0.003,-0.063 -0.004,-0.126 -0.003,-0.196 0.005,-0.131 0.014,-0.267 0.039,-0.425 0.007,-0.05 0.013,-0.098 0.019,-0.145 0.004,-0.029 0.008,-0.064 0.013,-0.095 10e-4,-0.027 0.003,-0.051 0.007,-0.079 0.003,-0.082 0.003,-0.156 0.002,-0.22 0,-0.018 0,-0.039 -0.002,-0.054 0,-0.008 -0.004,-0.016 -0.004,-0.024 -0.016,-0.13 -0.055,-0.224 -0.115,-0.361 -0.078,-0.186 -0.186,-0.441 -0.29,-0.869 -0.153,-0.641 -0.525,-1.054 -0.794,-1.352 -0.169,-0.188 -0.302,-0.338 -0.361,-0.515 -0.01,-0.032 -0.007,-0.071 -0.008,-0.106 -0.002,-0.009 -0.008,-0.012 -0.012,-0.02 -0.006,-0.016 0,-0.02 0.01,-0.024 0.002,-0.086 0.017,-0.168 0.065,-0.235 0.076,-0.102 0.208,-0.169 0.338,-0.169 0.153,0 0.343,0 2.441,1.753 0.184,-0.107 0.365,-0.259 0.38,-0.377 0.024,-0.161 0.036,-0.307 0.049,-0.449 0.005,-0.05 0.007,-0.105 0.011,-0.165 0.005,-0.079 0.007,-0.154 0.012,-0.223 10e-4,-0.103 -0.005,-0.205 -0.007,-0.307 -0.002,-0.036 -0.002,-0.079 -0.005,-0.114 0,-0.008 -0.004,-0.013 -0.004,-0.021 -0.01,-0.097 -0.024,-0.188 -0.048,-0.266 -0.082,-0.319 -0.245,-0.692 -0.401,-1.054 -0.077,-0.172 -0.149,-0.341 -0.215,-0.499 -0.205,-0.518 -0.598,-2.087 -0.614,-2.15 -0.009,-0.032 -0.012,-0.067 -0.012,-0.099 0,0 0,-0.133 0.003,-0.325 0.015,-1.561 0.149,-1.823 0.547,-1.823 0.155,0 0.338,0.133 0.406,0.27 0.059,0.114 0.173,0.303 0.302,0.519 0.424,0.715 0.758,1.298 0.833,1.682 0.049,0.236 0.577,1.274 1.126,2.273 0.616,-0.477 1.661,-1.196 2.282,-1.196 0.151,0 0.291,0.086 0.358,0.221 0.066,0.138 0.051,0.302 -0.039,0.42 -0.019,0.02 -1.57,2.067 -2.044,3.393 -0.485,1.362 -0.882,2.947 -0.895,2.99 -0.077,0.228 -0.255,0.943 -0.184,1.524 0.049,0.385 -0.003,0.837 -0.052,1.279 -0.034,0.337 -0.097,0.903 -0.025,1.029 0.201,0.267 0.318,0.522 0.421,0.746 0.063,0.134 0.12,0.261 0.192,0.374 0.196,0.295 0.393,0.59 0.689,0.982 0.275,0.367 0.396,0.83 0.491,1.171 0.025,0.091 0.047,0.178 0.066,0.241 0.098,0.29 0.004,0.774 -0.358,1.839 l -0.112,0.346 c -0.119,0.401 -0.301,1.006 -0.564,1.446 -0.294,0.492 -0.691,1.392 -0.872,1.839 -0.056,0.143 -0.153,0.307 -0.264,0.496 -0.305,0.515 -0.542,0.958 -0.325,1.174 0.34,0.338 0.552,0.787 0.727,1.145 0.05,0.101 0.111,0.235 0.16,0.317 0.076,-0.003 0.162,-0.007 0.272,-0.007 l 0.455,0.004 0.093,0 c 0.006,-0.188 0.033,-0.468 0.081,-0.787 0.146,-1.1 0.463,-2.624 0.688,-2.994 0.058,-0.102 0.07,-0.181 0.084,-0.354 0.03,-0.326 0.068,-0.77 0.645,-1.489 0.262,-0.327 0.407,-0.59 0.528,-0.798 0.244,-0.432 0.441,-0.774 1.197,-0.939 0.898,-0.201 1.406,-0.004 1.786,0.192 l 0.122,0.06 c 0.175,0.069 0.279,0.255 0.246,0.443 -0.045,0.236 -0.312,0.385 -0.541,0.299"
         id="path154"
         style="fill:#80cc28;fill-opacity:1;fill-rule:nonzero;stroke:none" /><path
         d="m 455.1992,321.917 c -3.951,9.058 -11.776,18.05 -26.319,16.969 -23.928,-1.768 -17.722,-24.146 -17.722,-24.146 2.213,7.977 9.745,6.65 15.063,9.849 5.314,3.203 5.314,10.092 5.314,10.092 14.142,1.248 20.49,-11.907 23.264,-21.926 0.09,3.037 0.224,6.11 0.4,9.162"
         id="path158"
         style="fill:#80cc28;fill-opacity:1;fill-rule:nonzero;stroke:none" /><path
         d="m 443.9414,359.2671 c -2.659,0.22 -4.871,1.772 -5.092,5.763 -0.223,3.986 2.433,7.532 9.295,7.73 8.589,-0.008 11.14,-10.726 11.465,-21.898 0.141,0.41 0.277,0.818 0.424,1.206 0.714,1.917 1.485,3.7 2.296,5.379 -0.742,19.106 -11.184,19.143 -13.514,19.321 -2.88,0.221 -12.185,0 -14.397,-9.524 -2.215,-9.526 3.322,-17.502 8.197,-17.502 4.872,0 6.2,-6.199 6.2,-6.199 9.749,11.739 -2.215,15.507 -4.874,15.724"
         id="path162"
         style="fill:#80cc28;fill-opacity:1;fill-rule:nonzero;stroke:none" /><path
         d="m 484.4824,372.562 c -3.545,-0.221 -14.843,-1.107 -22.375,-21.268 -4.07,-10.891 -5.147,-30.899 -5.261,-47.492 0.122,0.017 0.239,0.035 0.364,0.035 l 4.012,0 c 0.034,0 0.066,-0.009 0.097,-0.009 -0.568,13.442 -0.252,31.505 4.11,44.363 7.813,23.004 18.362,17.28 18.362,17.28 1.438,-6.856 14.426,-12.404 20.409,-13.734 5.981,-1.333 7.088,-4.654 7.088,-4.654 -1.774,28.799 -23.26,25.698 -26.806,25.479"
         id="path166"
         style="fill:#80cc28;fill-opacity:1;fill-rule:nonzero;stroke:none" /><path
         d="m 326.9932,296.3389 c -1.32,1.563 -3.05,2.793 -5.145,3.658 -2.036,0.837 -4.563,1.262 -7.511,1.262 -4.657,0 -8.501,-1.324 -11.48,-3.95 l 0,1.992 c 0,1.113 -0.9,2.013 -2.012,2.013 l -6.348,0 c -1.112,0 -2.013,-0.9 -2.013,-2.013 l 0,-43.175 c 0,-1.111 0.901,-2.012 2.013,-2.012 l 6.744,0 c 1.113,0 2.013,0.901 2.013,2.012 l 0,24.31 c 0,1.639 0.219,3.156 0.656,4.5 0.42,1.298 1.05,2.441 1.871,3.392 0.809,0.936 1.8,1.643 3.026,2.157 1.258,0.532 2.798,0.799 4.579,0.799 2.052,0 3.585,-0.535 4.685,-1.635 1.101,-1.101 1.635,-2.606 1.635,-4.607 l 0,-28.916 c 0,-1.111 0.9,-2.012 2.013,-2.012 l 6.748,0 c 1.109,0 2.012,0.901 2.012,2.012 l 0,28.122 c 0,2.382 -0.247,4.587 -0.735,6.552 -0.522,2.119 -1.446,3.978 -2.751,5.539"
         id="path170"
         style="fill:#b8dd22;fill-opacity:1;fill-rule:nonzero;stroke:none" /><path
         d="m 352.1753,265.1348 c -1.29,0.57 -2.437,1.403 -3.4,2.476 -0.983,1.092 -1.765,2.489 -2.335,4.154 -0.581,1.707 -0.88,3.715 -0.88,5.975 0,2.251 0.299,4.265 0.884,5.978 0.566,1.667 1.356,3.077 2.346,4.198 0.964,1.096 2.103,1.942 3.385,2.507 1.3,0.569 2.696,0.861 4.15,0.861 1.454,0 2.85,-0.292 4.147,-0.861 1.285,-0.565 2.424,-1.411 3.391,-2.503 0.983,-1.125 1.773,-2.535 2.347,-4.206 0.586,-1.709 0.88,-3.723 0.88,-5.974 0,-2.26 -0.294,-4.268 -0.88,-5.978 -0.57,-1.662 -1.356,-3.059 -2.331,-4.147 -0.971,-1.077 -2.115,-1.91 -3.407,-2.48 -2.594,-1.147 -5.699,-1.147 -8.297,0 m 20.504,29.206 c -1.883,2.148 -4.209,3.853 -6.913,5.075 -2.712,1.226 -5.888,1.847 -9.441,1.847 -3.498,0 -6.658,-0.621 -9.394,-1.843 -2.735,-1.222 -5.077,-2.931 -6.961,-5.079 -1.866,-2.126 -3.285,-4.661 -4.212,-7.53 -0.909,-2.81 -1.368,-5.864 -1.368,-9.071 0,-3.215 0.459,-6.257 1.368,-9.04 0.931,-2.841 2.346,-5.365 4.212,-7.492 1.884,-2.144 4.23,-3.844 6.977,-5.042 2.735,-1.187 5.888,-1.792 9.378,-1.792 3.545,0 6.713,0.605 9.425,1.796 2.716,1.199 5.046,2.894 6.929,5.038 1.863,2.127 3.278,4.647 4.214,7.492 0.907,2.783 1.367,5.825 1.367,9.04 0,3.211 -0.46,6.261 -1.367,9.071 -0.932,2.873 -2.347,5.404 -4.214,7.53"
         id="path174"
         style="fill:#b8dd22;fill-opacity:1;fill-rule:nonzero;stroke:none" /><path
         d="m 418.1577,301.314 -6.749,0 c -1.112,0 -2.012,-0.9 -2.012,-2.012 l 0,-24.184 c 0,-1.631 -0.22,-3.148 -0.656,-4.505 -0.417,-1.296 -1.046,-2.435 -1.868,-3.387 -0.809,-0.931 -1.799,-1.639 -3.029,-2.158 -1.258,-0.53 -2.795,-0.798 -4.58,-0.798 -2.055,0 -3.588,0.535 -4.685,1.635 -1.1,1.097 -1.634,2.607 -1.634,4.611 l 0,28.786 c 0,1.112 -0.901,2.012 -2.013,2.012 l -6.744,0 c -1.113,0 -2.012,-0.9 -2.012,-2.012 l 0,-27.992 c 0,-2.382 0.247,-4.59 0.731,-6.552 0.522,-2.122 1.45,-3.986 2.754,-5.538 1.317,-1.573 3.055,-2.794 5.165,-3.635 2.024,-0.803 4.543,-1.211 7.488,-1.211 3.341,0 6.304,0.68 8.807,2.024 0.952,0.511 1.844,1.128 2.673,1.855 l 0,-1.867 c 0,-1.112 0.9,-2.012 2.012,-2.012 l 6.352,0 c 1.108,0 2.012,0.9 2.012,2.012 l 0,42.916 c 0,1.112 -0.904,2.012 -2.012,2.012"
         id="path178"
         style="fill:#b8dd22;fill-opacity:1;fill-rule:nonzero;stroke:none" /><path
         d="m 447.8232,301.2588 c -4.068,0.126 -7.499,-0.743 -10.223,-2.559 -1.089,-0.727 -2.11,-1.614 -3.061,-2.661 l 0,3.263 c 0,1.112 -0.9,2.012 -2.012,2.012 l -6.349,0 c -1.111,0 -2.011,-0.9 -2.011,-2.012 l 0,-42.916 c 0,-1.111 0.9,-2.012 2.011,-2.012 l 6.746,0 c 1.112,0 2.012,0.901 2.012,2.012 l 0,19.13 c 0,2.464 0.246,4.657 0.731,6.519 0.448,1.742 1.172,3.232 2.15,4.434 0.947,1.159 2.182,2.028 3.773,2.649 1.667,0.644 3.746,0.975 6.178,0.975 1.113,0 2.012,0.899 2.012,2.013 l 0,7.145 c 0,1.089 -0.868,1.981 -1.957,2.008"
         id="path182"
         style="fill:#b8dd22;fill-opacity:1;fill-rule:nonzero;stroke:none" /><path
         d="m 462.5352,301.314 -6.744,0 c -1.112,0 -2.013,-0.9 -2.013,-2.012 l 0,-42.916 c 0,-1.112 0.901,-2.012 2.013,-2.012 l 6.744,0 c 1.112,0 2.012,0.9 2.012,2.012 l 0,42.916 c 0,1.112 -0.9,2.012 -2.012,2.012"
         id="path186"
         style="fill:#b8dd22;fill-opacity:1;fill-rule:nonzero;stroke:none" /><path
         d="m 502.3887,279.1074 c -1.403,0.982 -3.022,1.78 -4.818,2.369 -1.691,0.552 -3.428,1.027 -5.129,1.397 -1.596,0.373 -3.197,0.731 -4.788,1.076 -1.478,0.323 -2.814,0.72 -3.978,1.179 -1.021,0.401 -1.863,0.909 -2.495,1.499 -0.409,0.384 -0.593,0.825 -0.593,1.426 0,0.593 0.113,1.026 0.357,1.328 0.334,0.42 0.77,0.754 1.34,1.022 0.672,0.314 1.435,0.538 2.268,0.665 1.945,0.298 3.809,0.298 5.612,-0.096 0.87,-0.191 1.675,-0.503 2.39,-0.919 0.645,-0.378 1.155,-0.864 1.568,-1.489 0.386,-0.575 0.621,-1.364 0.704,-2.343 0.086,-1.042 0.958,-1.847 2.003,-1.847 l 6.747,0 c 0.553,0 1.087,0.232 1.465,0.636 0.381,0.406 0.577,0.951 0.542,1.506 -0.176,2.771 -0.79,5.145 -1.824,7.063 -1.06,1.961 -2.503,3.541 -4.288,4.696 -1.722,1.117 -3.707,1.906 -5.896,2.347 -3.745,0.759 -8.276,1.002 -12.75,-0.095 -2.023,-0.503 -3.882,-1.281 -5.517,-2.318 -1.698,-1.085 -3.108,-2.507 -4.197,-4.242 -1.125,-1.799 -1.694,-3.945 -1.694,-6.385 0,-3.145 0.84,-5.681 2.495,-7.532 1.517,-1.701 3.435,-3.038 5.695,-3.973 2.111,-0.873 4.418,-1.553 6.854,-2.025 2.265,-0.436 4.387,-0.93 6.308,-1.469 1.769,-0.496 3.239,-1.136 4.376,-1.911 0.51,-0.348 1.1,-0.923 1.1,-2.298 0,-0.823 -0.173,-1.443 -0.527,-1.903 -0.433,-0.553 -0.967,-0.967 -1.635,-1.254 -0.805,-0.349 -1.71,-0.593 -2.683,-0.727 -2.477,-0.334 -4.627,-0.282 -6.672,0.138 -1.072,0.22 -2.039,0.582 -2.871,1.073 -0.752,0.44 -1.342,1.026 -1.809,1.78 -0.449,0.731 -0.695,1.667 -0.731,2.787 -0.04,1.084 -0.928,1.942 -2.013,1.942 l -6.747,0 c -0.547,0 -1.07,-0.225 -1.451,-0.618 -0.377,-0.396 -0.581,-0.927 -0.558,-1.477 0.113,-2.83 0.728,-5.303 1.823,-7.342 1.105,-2.052 2.602,-3.734 4.446,-4.992 1.792,-1.223 3.863,-2.114 6.158,-2.641 2.193,-0.507 4.536,-0.766 6.965,-0.766 2.18,0 4.406,0.212 6.602,0.628 2.32,0.441 4.443,1.234 6.301,2.358 1.934,1.164 3.518,2.721 4.713,4.619 1.234,1.961 1.856,4.405 1.856,7.267 0,2.307 -0.477,4.299 -1.424,5.931 -0.905,1.564 -2.115,2.884 -3.6,3.93"
         id="path190"
         style="fill:#b8dd22;fill-opacity:1;fill-rule:nonzero;stroke:none" /><path
         d="m 548.6699,290.7959 c -0.519,2.119 -1.441,3.982 -2.751,5.538 -1.317,1.568 -3.042,2.798 -5.142,3.663 -2.035,0.841 -4.562,1.266 -7.509,1.266 -1.349,0 -2.752,-0.15 -4.17,-0.44 -1.447,-0.295 -2.858,-0.759 -4.183,-1.38 -0.974,-0.452 -1.89,-1.006 -2.731,-1.651 l 0,16.139 c 0,1.112 -0.904,2.012 -2.013,2.012 l -6.748,0 c -1.112,0 -2.013,-0.9 -2.013,-2.012 l 0,-57.545 c 0,-1.111 0.901,-2.012 2.013,-2.012 l 6.748,0 c 1.109,0 2.013,0.901 2.013,2.012 l 0,24.05 c 0,1.639 0.219,3.152 0.656,4.5 0.425,1.317 1.038,2.425 1.871,3.392 0.81,0.936 1.801,1.643 3.022,2.161 1.257,0.528 2.802,0.795 4.583,0.795 2.052,0 3.584,-0.535 4.685,-1.635 1.101,-1.097 1.635,-2.606 1.635,-4.607 l 0,-28.656 c 0,-1.111 0.9,-2.012 2.009,-2.012 l 6.749,0 c 1.112,0 2.011,0.901 2.011,2.012 l 0,27.862 c 0,2.379 -0.248,4.587 -0.735,6.548"
         id="path194"
         style="fill:#b8dd22;fill-opacity:1;fill-rule:nonzero;stroke:none" /></g></g></svg>
